<svg width="18" height="20" viewBox="0 0 18 20" fill="none" xmlns="http://www.w3.org/2000/svg">
<path d="M7.33333 18.3333H10.6667C14.8333 18.3333 16.5 16.6667 16.5 12.5V7.5C16.5 3.33334 14.8333 1.66667 10.6667 1.66667H7.33333C3.16667 1.66667 1.5 3.33334 1.5 7.5V12.5C1.5 16.6667 3.16667 18.3333 7.33333 18.3333Z" stroke="#F8F8F8" stroke-width="1.5" stroke-linecap="round" stroke-linejoin="round"/>
<path d="M12.75 6.31667V7.15C12.75 7.83333 12.1917 8.4 11.5 8.4H6.5C5.81667 8.4 5.25 7.84167 5.25 7.15V6.31667C5.25 5.63333 5.80833 5.06667 6.5 5.06667H11.5C12.1917 5.06667 12.75 5.625 12.75 6.31667Z" stroke="#F8F8F8" stroke-width="1.5" stroke-linecap="round" stroke-linejoin="round"/>
<path d="M5.7801 11.6667H5.78973" stroke="#F8F8F8" stroke-width="2" stroke-linecap="round" stroke-linejoin="round"/>
<path d="M8.99604 11.6667H9.00567" stroke="#F8F8F8" stroke-width="2" stroke-linecap="round" stroke-linejoin="round"/>
<path d="M12.2119 11.6667H12.2216" stroke="#F8F8F8" stroke-width="2" stroke-linecap="round" stroke-linejoin="round"/>
<path d="M5.7801 14.5833H5.78973" stroke="#F8F8F8" stroke-width="2" stroke-linecap="round" stroke-linejoin="round"/>
<path d="M8.99604 14.5833H9.00567" stroke="#F8F8F8" stroke-width="2" stroke-linecap="round" stroke-linejoin="round"/>
<path d="M12.2119 14.5833H12.2216" stroke="#F8F8F8" stroke-width="2" stroke-linecap="round" stroke-linejoin="round"/>
</svg>
