<svg width="264" height="249" viewBox="0 0 264 249" fill="none" xmlns="http://www.w3.org/2000/svg">
<path d="M39.1646 61.6848L129.009 18.418L218.853 61.6848L241.043 158.904L178.869 236.868H79.1491L16.9748 158.904L39.1646 61.6848Z" stroke="black" stroke-opacity="0.12" stroke-width="0.720721"/>
<path d="M50.4342 70.672L129.009 32.8324L207.584 70.672L226.99 155.697L172.615 223.882H85.4033L31.0278 155.697L50.4342 70.672Z" stroke="black" stroke-opacity="0.12" stroke-width="0.720721"/>
<path d="M61.7039 79.6593L129.009 47.2468L196.314 79.6593L212.937 152.489L166.361 210.895H91.6575L45.0809 152.489L61.7039 79.6593Z" stroke="black" stroke-opacity="0.12" stroke-width="0.720721"/>
<path d="M72.9735 88.6465L129.009 61.6612L185.045 88.6465L198.884 149.282L160.106 197.908H97.9116L59.1339 149.282L72.9735 88.6465Z" stroke="black" stroke-opacity="0.12" stroke-width="0.720721"/>
<path d="M84.2431 97.6337L129.009 76.0756L173.775 97.6337L184.831 146.074L153.852 184.921H104.166L73.1869 146.074L84.2431 97.6337Z" stroke="black" stroke-opacity="0.12" stroke-width="0.720721"/>
<path d="M95.5128 106.621L129.009 90.49L162.505 106.621L170.778 142.867L147.598 171.934H110.42L87.2399 142.867L95.5128 106.621Z" stroke="black" stroke-opacity="0.12" stroke-width="0.720721"/>
<path d="M106.782 115.608L129.009 104.904L151.236 115.608L156.725 139.659L141.344 158.947H116.674L101.293 139.659L106.782 115.608Z" stroke="black" stroke-opacity="0.12" stroke-width="0.720721"/>
<path d="M118.052 124.595L129.009 119.319L139.966 124.595L142.672 136.452L135.09 145.96H122.928L115.346 136.452L118.052 124.595Z" stroke="black" stroke-opacity="0.12" stroke-width="0.720721"/>
<path d="M129.369 133.694L218.739 61.982M129.369 133.694L240.721 158.919M129.369 133.694L178.739 236.757M129.369 133.694L79.2793 236.757M129.369 133.694L17.2973 158.919M129.369 133.694L39.2793 61.982M129.369 133.694L129.009 18.7387" stroke="black" stroke-opacity="0.12" stroke-width="0.720721" stroke-linecap="round" stroke-linejoin="round"/>
<path d="M181.23 238.447L179.534 243.117H178.841L180.794 237.993H181.241L181.23 238.447ZM182.652 243.117L180.952 238.447L180.942 237.993H181.389L183.349 243.117H182.652ZM182.564 241.22V241.776H179.685V241.22H182.564ZM184.588 240.041V244.581H183.933V239.309H184.531L184.588 240.041ZM187.153 241.182V241.255C187.153 241.532 187.12 241.789 187.054 242.026C186.989 242.261 186.893 242.465 186.766 242.639C186.642 242.812 186.488 242.947 186.305 243.043C186.122 243.139 185.912 243.187 185.675 243.187C185.433 243.187 185.22 243.148 185.034 243.068C184.849 242.988 184.692 242.872 184.563 242.719C184.434 242.567 184.331 242.384 184.253 242.17C184.178 241.957 184.127 241.716 184.098 241.449V241.055C184.127 240.773 184.179 240.521 184.257 240.298C184.334 240.075 184.436 239.885 184.563 239.728C184.692 239.569 184.848 239.448 185.031 239.366C185.214 239.281 185.425 239.239 185.664 239.239C185.904 239.239 186.116 239.286 186.301 239.38C186.487 239.471 186.643 239.603 186.769 239.774C186.896 239.945 186.991 240.15 187.054 240.39C187.12 240.627 187.153 240.891 187.153 241.182ZM186.498 241.255V241.182C186.498 240.992 186.479 240.813 186.439 240.647C186.399 240.478 186.337 240.33 186.252 240.203C186.17 240.074 186.064 239.973 185.935 239.901C185.806 239.826 185.653 239.788 185.474 239.788C185.31 239.788 185.167 239.816 185.045 239.872C184.925 239.929 184.823 240.005 184.739 240.101C184.654 240.195 184.585 240.303 184.531 240.425C184.48 240.545 184.441 240.669 184.415 240.798V241.709C184.462 241.874 184.528 242.029 184.612 242.174C184.697 242.317 184.809 242.433 184.95 242.522C185.091 242.609 185.268 242.653 185.481 242.653C185.657 242.653 185.809 242.616 185.935 242.543C186.064 242.468 186.17 242.366 186.252 242.237C186.337 242.108 186.399 241.96 186.439 241.794C186.479 241.625 186.498 241.446 186.498 241.255ZM188.635 239.908V243.117H187.984V239.309H188.617L188.635 239.908ZM189.824 239.288L189.821 239.894C189.767 239.882 189.715 239.875 189.666 239.872C189.619 239.868 189.565 239.865 189.504 239.865C189.354 239.865 189.221 239.889 189.106 239.936C188.991 239.983 188.894 240.048 188.814 240.133C188.734 240.217 188.671 240.318 188.624 240.436C188.579 240.55 188.55 240.677 188.536 240.816L188.353 240.921C188.353 240.691 188.375 240.475 188.42 240.274C188.467 240.072 188.538 239.894 188.635 239.739C188.731 239.582 188.853 239.46 189.001 239.373C189.151 239.284 189.329 239.239 189.535 239.239C189.582 239.239 189.636 239.245 189.697 239.257C189.758 239.266 189.801 239.277 189.824 239.288ZM191.133 239.309V243.117H190.479V239.309H191.133ZM190.429 238.299C190.429 238.194 190.461 238.105 190.524 238.032C190.59 237.959 190.686 237.923 190.813 237.923C190.937 237.923 191.032 237.959 191.098 238.032C191.166 238.105 191.2 238.194 191.2 238.299C191.2 238.4 191.166 238.487 191.098 238.56C191.032 238.63 190.937 238.665 190.813 238.665C190.686 238.665 190.59 238.63 190.524 238.56C190.461 238.487 190.429 238.4 190.429 238.299ZM192.886 237.712V243.117H192.231V237.712H192.886Z" fill="black" fill-opacity="0.6"/>
<path d="M68.5571 237.993H69.2152L70.8939 242.17L72.569 237.993H73.2306L71.1472 243.117H70.6334L68.5571 237.993ZM68.3425 237.993H68.9231L69.0182 241.118V243.117H68.3425V237.993ZM72.8611 237.993H73.4417V243.117H72.766V241.118L72.8611 237.993ZM76.7814 242.466V240.506C76.7814 240.356 76.7509 240.226 76.6899 240.115C76.6312 240.003 76.5421 239.916 76.4224 239.855C76.3028 239.794 76.155 239.763 75.979 239.763C75.8148 239.763 75.6705 239.792 75.5462 239.848C75.4242 239.904 75.328 239.978 75.2576 240.07C75.1896 240.161 75.1555 240.26 75.1555 240.365H74.5045C74.5045 240.229 74.5397 240.094 74.6101 239.96C74.6805 239.827 74.7813 239.706 74.9127 239.598C75.0464 239.488 75.206 239.401 75.3913 239.338C75.579 239.272 75.7878 239.239 76.0177 239.239C76.2946 239.239 76.5386 239.286 76.7497 239.38C76.9632 239.474 77.1298 239.616 77.2494 239.806C77.3714 239.993 77.4324 240.229 77.4324 240.513V242.287C77.4324 242.413 77.443 242.548 77.4641 242.691C77.4876 242.834 77.5216 242.958 77.5662 243.061V243.117H76.887C76.8541 243.042 76.8283 242.942 76.8095 242.818C76.7908 242.691 76.7814 242.574 76.7814 242.466ZM76.894 240.809L76.901 241.266H76.243C76.0576 241.266 75.8922 241.281 75.7468 241.312C75.6013 241.34 75.4793 241.383 75.3808 241.442C75.2822 241.501 75.2072 241.575 75.1555 241.664C75.1039 241.751 75.0781 241.853 75.0781 241.97C75.0781 242.09 75.1051 242.199 75.1591 242.297C75.213 242.396 75.294 242.474 75.4019 242.533C75.5121 242.589 75.647 242.617 75.8066 242.617C76.006 242.617 76.182 242.575 76.3345 242.491C76.487 242.406 76.6078 242.303 76.6969 242.181C76.7884 242.059 76.8377 241.941 76.8447 241.826L77.1227 242.139C77.1063 242.237 77.0617 242.346 76.989 242.466C76.9163 242.586 76.8189 242.701 76.6969 242.811C76.5773 242.919 76.4342 243.009 76.2676 243.082C76.1034 243.152 75.918 243.187 75.7116 243.187C75.4535 243.187 75.2271 243.137 75.0324 243.036C74.84 242.935 74.6898 242.8 74.5819 242.631C74.4763 242.46 74.4236 242.269 74.4236 242.058C74.4236 241.854 74.4634 241.674 74.5432 241.519C74.623 241.362 74.7379 241.232 74.8881 241.129C75.0382 241.023 75.2189 240.943 75.43 240.889C75.6412 240.836 75.877 240.809 76.1374 240.809H76.894ZM79.47 242.723L80.5293 239.309H81.2261L79.6988 243.705C79.6636 243.799 79.6166 243.9 79.558 244.007C79.5017 244.118 79.429 244.222 79.3398 244.321C79.2507 244.419 79.1427 244.499 79.016 244.56C78.8917 244.623 78.7427 244.655 78.5691 244.655C78.5175 244.655 78.4518 244.648 78.372 244.634C78.2923 244.62 78.236 244.608 78.2031 244.599L78.1996 244.071C78.2184 244.073 78.2477 244.075 78.2876 244.078C78.3298 244.083 78.3591 244.085 78.3756 244.085C78.5234 244.085 78.6489 244.065 78.7521 244.025C78.8553 243.988 78.9421 243.923 79.0125 243.831C79.0853 243.742 79.1474 243.619 79.199 243.462L79.47 242.723ZM78.6923 239.309L79.6812 242.265L79.8501 242.952L79.382 243.191L77.9814 239.309H78.6923Z" fill="black" fill-opacity="0.6"/>
<path d="M2.74493 158.018V154.39H3.42061V158.018C3.42061 158.356 3.3514 158.641 3.21298 158.873C3.07456 159.105 2.88335 159.282 2.63936 159.404C2.39771 159.524 2.1197 159.584 1.80532 159.584C1.49094 159.584 1.21176 159.53 0.967765 159.422C0.723771 159.314 0.532564 159.15 0.394144 158.929C0.255724 158.709 0.186515 158.431 0.186515 158.095H0.86571C0.86571 158.311 0.905593 158.488 0.98536 158.627C1.06513 158.765 1.17539 158.867 1.31616 158.933C1.45927 158.999 1.62233 159.031 1.80532 159.031C1.98362 159.031 2.14316 158.994 2.28392 158.919C2.42704 158.841 2.53965 158.728 2.62176 158.577C2.70388 158.425 2.74493 158.238 2.74493 158.018ZM6.80251 158.634V155.706H7.45707V159.514H6.83418L6.80251 158.634ZM6.92568 157.831L7.19665 157.824C7.19665 158.078 7.16967 158.312 7.11571 158.528C7.0641 158.742 6.97964 158.927 6.86233 159.084C6.74503 159.241 6.59136 159.365 6.40132 159.454C6.21129 159.54 5.9802 159.584 5.70805 159.584C5.52271 159.584 5.35262 159.557 5.19778 159.503C5.04528 159.449 4.9139 159.366 4.80363 159.253C4.69337 159.14 4.60773 158.994 4.54673 158.813C4.48808 158.633 4.45876 158.416 4.45876 158.162V155.706H5.1098V158.169C5.1098 158.34 5.12857 158.482 5.1661 158.595C5.20599 158.705 5.25877 158.793 5.32447 158.859C5.3925 158.922 5.46758 158.967 5.54969 158.993C5.63415 159.018 5.72096 159.031 5.81011 159.031C6.08695 159.031 6.30631 158.979 6.46819 158.873C6.63007 158.765 6.7462 158.621 6.81658 158.44C6.88931 158.257 6.92568 158.054 6.92568 157.831ZM9.10051 156.519V159.514H8.44947V155.706H9.06532L9.10051 156.519ZM8.94566 157.465L8.67469 157.455C8.67704 157.194 8.71575 156.954 8.79082 156.733C8.8659 156.511 8.97147 156.317 9.10755 156.153C9.24362 155.988 9.4055 155.862 9.59319 155.773C9.78322 155.681 9.9932 155.635 10.2231 155.635C10.4108 155.635 10.5797 155.661 10.7299 155.713C10.88 155.762 11.0079 155.842 11.1135 155.952C11.2214 156.062 11.3035 156.206 11.3598 156.381C11.4161 156.555 11.4443 156.767 11.4443 157.018V159.514H10.7897V157.011C10.7897 156.812 10.7604 156.652 10.7017 156.533C10.6431 156.411 10.5574 156.323 10.4448 156.269C10.3322 156.213 10.1938 156.184 10.0296 156.184C9.86768 156.184 9.71988 156.218 9.58615 156.286C9.45477 156.354 9.34098 156.448 9.24479 156.568C9.15095 156.688 9.07705 156.825 9.02309 156.98C8.97147 157.132 8.94566 157.294 8.94566 157.465ZM14.0132 159.584C13.7481 159.584 13.5076 159.539 13.2918 159.45C13.0783 159.359 12.8941 159.231 12.7393 159.067C12.5868 158.902 12.4695 158.708 12.3874 158.482C12.3053 158.257 12.2642 158.011 12.2642 157.743V157.596C12.2642 157.286 12.31 157.01 12.4015 156.769C12.493 156.525 12.6173 156.318 12.7745 156.149C12.9317 155.98 13.11 155.852 13.3094 155.766C13.5088 155.679 13.7153 155.635 13.9288 155.635C14.2009 155.635 14.4355 155.682 14.6326 155.776C14.832 155.87 14.9951 156.001 15.1218 156.17C15.2485 156.337 15.3423 156.534 15.4033 156.762C15.4643 156.987 15.4948 157.233 15.4948 157.501V157.793H12.6513V157.261H14.8438V157.212C14.8344 157.043 14.7992 156.879 14.7382 156.719C14.6795 156.56 14.5857 156.428 14.4566 156.325C14.3276 156.222 14.1517 156.17 13.9288 156.17C13.781 156.17 13.6449 156.202 13.5206 156.265C13.3962 156.326 13.2895 156.418 13.2003 156.54C13.1112 156.662 13.0419 156.811 12.9927 156.987C12.9434 157.163 12.9188 157.366 12.9188 157.596V157.743C12.9188 157.924 12.9434 158.094 12.9927 158.254C13.0443 158.411 13.1182 158.549 13.2144 158.669C13.3129 158.789 13.4314 158.882 13.5698 158.95C13.7106 159.018 13.8701 159.052 14.0484 159.052C14.2783 159.052 14.4731 159.006 14.6326 158.912C14.7921 158.818 14.9317 158.692 15.0514 158.535L15.4455 158.848C15.3634 158.973 15.259 159.091 15.1323 159.204C15.0056 159.316 14.8496 159.408 14.6643 159.478C14.4813 159.549 14.2643 159.584 14.0132 159.584Z" fill="black" fill-opacity="0.6"/>
<path d="M27.9702 59.2791V55.6509H28.6458V59.2791C28.6458 59.617 28.5766 59.902 28.4382 60.1343C28.2998 60.3665 28.1086 60.5437 27.8646 60.6657C27.6229 60.7853 27.3449 60.8451 27.0305 60.8451C26.7162 60.8451 26.437 60.7912 26.193 60.6833C25.949 60.5753 25.7578 60.4111 25.6194 60.1906C25.4809 59.9701 25.4117 59.692 25.4117 59.3565H26.0909C26.0909 59.5724 26.1308 59.7495 26.2106 59.8879C26.2903 60.0264 26.4006 60.1284 26.5414 60.1941C26.6845 60.2598 26.8475 60.2926 27.0305 60.2926C27.2088 60.2926 27.3684 60.2551 27.5091 60.18C27.6523 60.1026 27.7649 59.9888 27.847 59.8387C27.9291 59.6862 27.9702 59.4997 27.9702 59.2791ZM32.0277 59.895V56.9671H32.6823V60.7748H32.0594L32.0277 59.895ZM32.1509 59.0926L32.4219 59.0856C32.4219 59.339 32.3949 59.5736 32.3409 59.7894C32.2893 60.0029 32.2049 60.1882 32.0876 60.3454C31.9702 60.5026 31.8166 60.6258 31.6265 60.7149C31.4365 60.8017 31.2054 60.8451 30.9333 60.8451C30.7479 60.8451 30.5778 60.8182 30.423 60.7642C30.2705 60.7102 30.1391 60.627 30.0289 60.5143C29.9186 60.4017 29.833 60.2551 29.772 60.0745C29.7133 59.8938 29.684 59.6768 29.684 59.4234V56.9671H30.335V59.4305C30.335 59.6017 30.3538 59.7437 30.3913 59.8563C30.4312 59.9665 30.484 60.0545 30.5497 60.1202C30.6177 60.1835 30.6928 60.2281 30.7749 60.2539C30.8594 60.2797 30.9462 60.2926 31.0353 60.2926C31.3122 60.2926 31.5315 60.2399 31.6934 60.1343C31.8553 60.0264 31.9714 59.8821 32.0418 59.7014C32.1145 59.5184 32.1509 59.3155 32.1509 59.0926ZM34.382 55.3694V60.7748H33.7275V55.3694H34.382ZM36.497 60.3806L37.5563 56.9671H38.2531L36.7258 61.3625C36.6906 61.4563 36.6437 61.5572 36.585 61.6651C36.5287 61.7754 36.456 61.8798 36.3668 61.9783C36.2777 62.0768 36.1698 62.1566 36.0431 62.2176C35.9187 62.281 35.7697 62.3126 35.5961 62.3126C35.5445 62.3126 35.4788 62.3056 35.3991 62.2915C35.3193 62.2774 35.263 62.2657 35.2301 62.2563L35.2266 61.7285C35.2454 61.7308 35.2747 61.7331 35.3146 61.7355C35.3568 61.7402 35.3862 61.7425 35.4026 61.7425C35.5504 61.7425 35.6759 61.7226 35.7791 61.6827C35.8824 61.6452 35.9692 61.5806 36.0396 61.4892C36.1123 61.4 36.1745 61.2768 36.2261 61.1196L36.497 60.3806ZM35.7193 56.9671L36.7082 59.9231L36.8771 60.6094L36.4091 60.8487L35.0084 56.9671H35.7193Z" fill="black" fill-opacity="0.6"/>
<path d="M119.502 4.50436V0.876118H120.177V4.50436C120.177 4.84219 120.108 5.12724 119.97 5.35951C119.831 5.59177 119.64 5.7689 119.396 5.8909C119.154 6.01055 118.876 6.07038 118.562 6.07038C118.248 6.07038 117.969 6.01642 117.725 5.90849C117.481 5.80057 117.289 5.63635 117.151 5.41581C117.012 5.19528 116.943 4.91727 116.943 4.58178H117.622C117.622 4.79762 117.662 4.97475 117.742 5.11317C117.822 5.25159 117.932 5.35364 118.073 5.41933C118.216 5.48502 118.379 5.51787 118.562 5.51787C118.74 5.51787 118.9 5.48033 119.041 5.40526C119.184 5.32784 119.296 5.21405 119.379 5.0639C119.461 4.9114 119.502 4.72489 119.502 4.50436ZM123.475 5.34895V3.38879C123.475 3.23864 123.444 3.10843 123.383 2.99816C123.325 2.88555 123.235 2.79874 123.116 2.73775C122.996 2.67675 122.848 2.64625 122.672 2.64625C122.508 2.64625 122.364 2.6744 122.24 2.73071C122.118 2.78701 122.021 2.86092 121.951 2.95241C121.883 3.04391 121.849 3.14245 121.849 3.24802H121.198C121.198 3.11195 121.233 2.97705 121.303 2.84332C121.374 2.70959 121.475 2.58877 121.606 2.48085C121.74 2.37058 121.899 2.28378 122.085 2.22043C122.272 2.15474 122.481 2.1219 122.711 2.1219C122.988 2.1219 123.232 2.16882 123.443 2.26266C123.657 2.3565 123.823 2.49844 123.943 2.68848C124.065 2.87617 124.126 3.11195 124.126 3.39583V5.16947C124.126 5.29616 124.136 5.43106 124.158 5.57418C124.181 5.71729 124.215 5.84046 124.26 5.94369V5.99999H123.58C123.548 5.92492 123.522 5.82521 123.503 5.70087C123.484 5.57418 123.475 5.45687 123.475 5.34895ZM123.587 3.69143L123.594 4.14892H122.936C122.751 4.14892 122.586 4.16417 122.44 4.19467C122.295 4.22282 122.173 4.26623 122.074 4.32488C121.976 4.38353 121.901 4.45743 121.849 4.54659C121.797 4.63339 121.772 4.73545 121.772 4.85275C121.772 4.9724 121.799 5.0815 121.852 5.18003C121.906 5.27857 121.987 5.35716 122.095 5.41581C122.206 5.47212 122.34 5.50027 122.5 5.50027C122.699 5.50027 122.875 5.45804 123.028 5.37358C123.18 5.28913 123.301 5.1859 123.39 5.0639C123.482 4.9419 123.531 4.82343 123.538 4.70847L123.816 5.02167C123.8 5.12021 123.755 5.2293 123.682 5.34895C123.61 5.4686 123.512 5.58356 123.39 5.69383C123.271 5.80175 123.128 5.89207 122.961 5.9648C122.797 6.03518 122.611 6.07038 122.405 6.07038C122.147 6.07038 121.921 6.01993 121.726 5.91905C121.533 5.81817 121.383 5.68327 121.275 5.51435C121.17 5.34309 121.117 5.15188 121.117 4.94073C121.117 4.73662 121.157 4.55714 121.237 4.4023C121.316 4.24511 121.431 4.1149 121.581 4.01168C121.732 3.9061 121.912 3.82633 122.123 3.77237C122.335 3.71841 122.57 3.69143 122.831 3.69143H123.587ZM125.801 3.0052V5.99999H125.15V2.19228H125.766L125.801 3.0052ZM125.646 3.95185L125.375 3.94129C125.377 3.68088 125.416 3.4404 125.491 3.21987C125.566 2.99699 125.672 2.80344 125.808 2.63921C125.944 2.47498 126.106 2.34829 126.294 2.25914C126.484 2.16764 126.694 2.1219 126.924 2.1219C127.111 2.1219 127.28 2.1477 127.43 2.19932C127.58 2.24858 127.708 2.32835 127.814 2.43862C127.922 2.54888 128.004 2.692 128.06 2.86795C128.117 3.04156 128.145 3.25389 128.145 3.50492V5.99999H127.49V3.49788C127.49 3.29846 127.461 3.13893 127.402 3.01928C127.344 2.89728 127.258 2.8093 127.145 2.75534C127.033 2.69903 126.894 2.67088 126.73 2.67088C126.568 2.67088 126.42 2.7049 126.287 2.77294C126.155 2.84097 126.041 2.93482 125.945 3.05447C125.851 3.17412 125.777 3.31137 125.724 3.46621C125.672 3.6187 125.646 3.78059 125.646 3.95185ZM131.463 5.12021V2.19228H132.118V5.99999H131.495L131.463 5.12021ZM131.586 4.31784L131.857 4.3108C131.857 4.56418 131.83 4.79879 131.776 5.01463C131.725 5.22813 131.64 5.41347 131.523 5.57066C131.406 5.72785 131.252 5.85102 131.062 5.94017C130.872 6.02697 130.641 6.07038 130.369 6.07038C130.183 6.07038 130.013 6.0434 129.859 5.98943C129.706 5.93547 129.575 5.85219 129.464 5.73958C129.354 5.62696 129.268 5.48033 129.207 5.29968C129.149 5.11903 129.12 4.90202 129.12 4.64864V2.19228H129.771V4.65568C129.771 4.82694 129.789 4.96888 129.827 5.0815C129.867 5.19176 129.92 5.27974 129.985 5.34543C130.053 5.40878 130.128 5.45335 130.21 5.47916C130.295 5.50497 130.382 5.51787 130.471 5.51787C130.748 5.51787 130.967 5.46508 131.129 5.35951C131.291 5.25159 131.407 5.1073 131.477 4.92665C131.55 4.74366 131.586 4.54072 131.586 4.31784ZM135.355 5.34895V3.38879C135.355 3.23864 135.325 3.10843 135.264 2.99816C135.205 2.88555 135.116 2.79874 134.996 2.73775C134.877 2.67675 134.729 2.64625 134.553 2.64625C134.389 2.64625 134.245 2.6744 134.12 2.73071C133.998 2.78701 133.902 2.86092 133.832 2.95241C133.764 3.04391 133.73 3.14245 133.73 3.24802H133.079C133.079 3.11195 133.114 2.97705 133.184 2.84332C133.255 2.70959 133.355 2.58877 133.487 2.48085C133.62 2.37058 133.78 2.28378 133.965 2.22043C134.153 2.15474 134.362 2.1219 134.592 2.1219C134.869 2.1219 135.113 2.16882 135.324 2.26266C135.537 2.3565 135.704 2.49844 135.823 2.68848C135.945 2.87617 136.006 3.11195 136.006 3.39583V5.16947C136.006 5.29616 136.017 5.43106 136.038 5.57418C136.062 5.71729 136.096 5.84046 136.14 5.94369V5.99999H135.461C135.428 5.92492 135.402 5.82521 135.384 5.70087C135.365 5.57418 135.355 5.45687 135.355 5.34895ZM135.468 3.69143L135.475 4.14892H134.817C134.632 4.14892 134.466 4.16417 134.321 4.19467C134.175 4.22282 134.053 4.26623 133.955 4.32488C133.856 4.38353 133.781 4.45743 133.73 4.54659C133.678 4.63339 133.652 4.73545 133.652 4.85275C133.652 4.9724 133.679 5.0815 133.733 5.18003C133.787 5.27857 133.868 5.35716 133.976 5.41581C134.086 5.47212 134.221 5.50027 134.381 5.50027C134.58 5.50027 134.756 5.45804 134.908 5.37358C135.061 5.28913 135.182 5.1859 135.271 5.0639C135.362 4.9419 135.412 4.82343 135.419 4.70847L135.697 5.02167C135.68 5.12021 135.636 5.2293 135.563 5.34895C135.49 5.4686 135.393 5.58356 135.271 5.69383C135.151 5.80175 135.008 5.89207 134.842 5.9648C134.677 6.03518 134.492 6.07038 134.286 6.07038C134.028 6.07038 133.801 6.01993 133.606 5.91905C133.414 5.81817 133.264 5.68327 133.156 5.51435C133.05 5.34309 132.998 5.15188 132.998 4.94073C132.998 4.73662 133.037 4.55714 133.117 4.4023C133.197 4.24511 133.312 4.1149 133.462 4.01168C133.612 3.9061 133.793 3.82633 134.004 3.77237C134.215 3.71841 134.451 3.69143 134.711 3.69143H135.468ZM137.682 2.79053V5.99999H137.031V2.19228H137.664L137.682 2.79053ZM138.871 2.17116L138.868 2.77646C138.814 2.76473 138.762 2.75769 138.713 2.75534C138.666 2.75065 138.612 2.7483 138.551 2.7483C138.401 2.7483 138.268 2.77176 138.153 2.81869C138.038 2.86561 137.941 2.9313 137.861 3.01576C137.781 3.10022 137.718 3.2011 137.671 3.3184C137.626 3.43336 137.597 3.56005 137.583 3.69847L137.4 3.80405C137.4 3.57413 137.422 3.35829 137.467 3.15652C137.514 2.95476 137.585 2.77646 137.682 2.62161C137.778 2.46443 137.9 2.34243 138.048 2.25562C138.198 2.16647 138.376 2.1219 138.582 2.1219C138.629 2.1219 138.683 2.12776 138.744 2.13949C138.805 2.14888 138.848 2.15943 138.871 2.17116ZM140.606 5.60585L141.665 2.19228H142.362L140.835 6.58769C140.8 6.68153 140.753 6.78242 140.694 6.89034C140.638 7.0006 140.565 7.105 140.476 7.20354C140.387 7.30208 140.279 7.38184 140.152 7.44284C140.028 7.50619 139.879 7.53786 139.705 7.53786C139.653 7.53786 139.588 7.53082 139.508 7.51674C139.428 7.50267 139.372 7.49094 139.339 7.48155L139.336 6.95368C139.354 6.95603 139.384 6.95837 139.424 6.96072C139.466 6.96541 139.495 6.96776 139.512 6.96776C139.659 6.96776 139.785 6.94782 139.888 6.90793C139.991 6.87039 140.078 6.80588 140.149 6.71438C140.221 6.62523 140.283 6.50206 140.335 6.34487L140.606 5.60585ZM139.828 2.19228L140.817 5.14836L140.986 5.83459L140.518 6.07389L139.117 2.19228H139.828Z" fill="black" fill-opacity="0.6"/>
<path d="M221.814 57.0923V62.2162H221.135V57.0923H221.814ZM223.961 59.3974V59.9534H221.667V59.3974H223.961ZM224.31 57.0923V57.6484H221.667V57.0923H224.31ZM226.523 62.2866C226.258 62.2866 226.017 62.242 225.802 62.1529C225.588 62.0614 225.404 61.9335 225.249 61.7693C225.097 61.6051 224.979 61.4103 224.897 61.1851C224.815 60.9599 224.774 60.7135 224.774 60.4461V60.2983C224.774 59.9886 224.82 59.7129 224.911 59.4713C225.003 59.2273 225.127 59.0208 225.284 58.8519C225.442 58.683 225.62 58.5551 225.819 58.4683C226.019 58.3815 226.225 58.3381 226.439 58.3381C226.711 58.3381 226.945 58.385 227.142 58.4789C227.342 58.5727 227.505 58.7041 227.632 58.873C227.758 59.0396 227.852 59.2367 227.913 59.4642C227.974 59.6895 228.005 59.9358 228.005 60.2033V60.4953H225.161V59.964H227.354V59.9147C227.344 59.7458 227.309 59.5815 227.248 59.422C227.189 59.2625 227.096 59.1311 226.966 59.0279C226.837 58.9246 226.661 58.873 226.439 58.873C226.291 58.873 226.155 58.9047 226.03 58.968C225.906 59.029 225.799 59.1205 225.71 59.2425C225.621 59.3645 225.552 59.5135 225.503 59.6895C225.453 59.8654 225.429 60.0684 225.429 60.2983V60.4461C225.429 60.6267 225.453 60.7968 225.503 60.9564C225.554 61.1135 225.628 61.252 225.724 61.3716C225.823 61.4913 225.941 61.5851 226.08 61.6531C226.22 61.7212 226.38 61.7552 226.558 61.7552C226.788 61.7552 226.983 61.7083 227.142 61.6144C227.302 61.5206 227.442 61.3951 227.561 61.2379L227.955 61.5511C227.873 61.6754 227.769 61.7939 227.642 61.9065C227.515 62.0191 227.359 62.1106 227.174 62.181C226.991 62.2514 226.774 62.2866 226.523 62.2866ZM228.761 56.8108H229.416V61.4772L229.36 62.2162H228.761V56.8108ZM231.988 60.2807V60.3546C231.988 60.6314 231.955 60.8883 231.89 61.1253C231.824 61.3599 231.728 61.564 231.601 61.7376C231.475 61.9112 231.32 62.0461 231.137 62.1423C230.954 62.2385 230.744 62.2866 230.507 62.2866C230.265 62.2866 230.053 62.2455 229.87 62.1634C229.689 62.079 229.537 61.9581 229.412 61.801C229.288 61.6438 229.188 61.4537 229.113 61.2308C229.04 61.008 228.99 60.7569 228.962 60.4778V60.154C228.99 59.8725 229.04 59.6203 229.113 59.3974C229.188 59.1745 229.288 58.9845 229.412 58.8273C229.537 58.6677 229.689 58.5469 229.87 58.4648C230.05 58.3803 230.26 58.3381 230.5 58.3381C230.739 58.3381 230.951 58.385 231.137 58.4789C231.322 58.5704 231.477 58.7018 231.601 58.873C231.728 59.0443 231.824 59.2496 231.89 59.4889C231.955 59.7258 231.988 59.9898 231.988 60.2807ZM231.334 60.3546V60.2807C231.334 60.0906 231.316 59.9123 231.281 59.7458C231.246 59.5769 231.189 59.429 231.112 59.3024C231.035 59.1733 230.933 59.0724 230.806 58.9997C230.679 58.9246 230.523 58.8871 230.338 58.8871C230.174 58.8871 230.03 58.9153 229.908 58.9716C229.789 59.0279 229.687 59.1041 229.602 59.2003C229.518 59.2941 229.449 59.4021 229.395 59.5241C229.343 59.6437 229.304 59.7681 229.279 59.8971V60.7452C229.316 60.9094 229.377 61.0678 229.462 61.2203C229.548 61.3704 229.663 61.4936 229.806 61.5898C229.952 61.686 230.131 61.7341 230.345 61.7341C230.521 61.7341 230.671 61.6989 230.795 61.6285C230.922 61.5558 231.024 61.4561 231.101 61.3294C231.181 61.2027 231.24 61.0561 231.277 60.8895C231.315 60.7229 231.334 60.5446 231.334 60.3546ZM233.463 59.0067V62.2162H232.812V58.4085H233.445L233.463 59.0067ZM234.652 58.3874L234.649 58.9927C234.595 58.9809 234.543 58.9739 234.494 58.9716C234.447 58.9669 234.393 58.9645 234.332 58.9645C234.182 58.9645 234.049 58.988 233.934 59.0349C233.819 59.0818 233.722 59.1475 233.642 59.232C233.563 59.3164 233.499 59.4173 233.452 59.5346C233.408 59.6496 233.378 59.7763 233.364 59.9147L233.181 60.0203C233.181 59.7903 233.204 59.5745 233.248 59.3727C233.295 59.171 233.367 58.9927 233.463 58.8378C233.559 58.6806 233.681 58.5586 233.829 58.4718C233.979 58.3827 234.157 58.3381 234.364 58.3381C234.411 58.3381 234.465 58.344 234.526 58.3557C234.587 58.3651 234.629 58.3756 234.652 58.3874ZM237.584 61.3364V58.4085H238.238V62.2162H237.615L237.584 61.3364ZM237.707 60.5341L237.978 60.527C237.978 60.7804 237.951 61.015 237.897 61.2308C237.845 61.4443 237.761 61.6297 237.644 61.7869C237.526 61.9441 237.373 62.0672 237.183 62.1564C236.993 62.2432 236.761 62.2866 236.489 62.2866C236.304 62.2866 236.134 62.2596 235.979 62.2057C235.827 62.1517 235.695 62.0684 235.585 61.9558C235.475 61.8432 235.389 61.6965 235.328 61.5159C235.269 61.3353 235.24 61.1182 235.24 60.8649V58.4085H235.891V60.8719C235.891 61.0432 235.91 61.1851 235.947 61.2977C235.987 61.408 236.04 61.496 236.106 61.5616C236.174 61.625 236.249 61.6696 236.331 61.6954C236.415 61.7212 236.502 61.7341 236.591 61.7341C236.868 61.7341 237.088 61.6813 237.249 61.5757C237.411 61.4678 237.527 61.3235 237.598 61.1429C237.671 60.9599 237.707 60.7569 237.707 60.5341ZM241.476 61.5652V59.605C241.476 59.4549 241.445 59.3246 241.384 59.2144C241.326 59.1018 241.237 59.015 241.117 58.954C240.997 58.893 240.85 58.8625 240.674 58.8625C240.509 58.8625 240.365 58.8906 240.241 58.9469C240.119 59.0032 240.023 59.0771 239.952 59.1686C239.884 59.2601 239.85 59.3587 239.85 59.4642H239.199C239.199 59.3282 239.234 59.1933 239.305 59.0595C239.375 58.9258 239.476 58.805 239.607 58.6971C239.741 58.5868 239.901 58.5 240.086 58.4366C240.274 58.371 240.482 58.3381 240.712 58.3381C240.989 58.3381 241.233 58.385 241.444 58.4789C241.658 58.5727 241.824 58.7147 241.944 58.9047C242.066 59.0924 242.127 59.3282 242.127 59.612V61.3857C242.127 61.5124 242.138 61.6473 242.159 61.7904C242.182 61.9335 242.216 62.0567 242.261 62.1599V62.2162H241.581C241.549 62.1411 241.523 62.0414 241.504 61.9171C241.485 61.7904 241.476 61.6731 241.476 61.5652ZM241.589 59.9077L241.596 60.3651H240.937C240.752 60.3651 240.587 60.3804 240.441 60.4109C240.296 60.439 240.174 60.4824 240.075 60.5411C239.977 60.5997 239.902 60.6737 239.85 60.7628C239.798 60.8496 239.773 60.9517 239.773 61.069C239.773 61.1886 239.8 61.2977 239.854 61.3962C239.908 61.4948 239.988 61.5734 240.096 61.632C240.207 61.6883 240.342 61.7165 240.501 61.7165C240.701 61.7165 240.876 61.6743 241.029 61.5898C241.181 61.5053 241.302 61.4021 241.391 61.2801C241.483 61.1581 241.532 61.0396 241.539 60.9247L241.817 61.2379C241.801 61.3364 241.756 61.4455 241.684 61.5652C241.611 61.6848 241.513 61.7998 241.391 61.91C241.272 62.018 241.129 62.1083 240.962 62.181C240.798 62.2514 240.613 62.2866 240.406 62.2866C240.148 62.2866 239.922 62.2362 239.727 62.1353C239.535 62.0344 239.384 61.8995 239.276 61.7306C239.171 61.5593 239.118 61.3681 239.118 61.1569C239.118 60.9528 239.158 60.7734 239.238 60.6185C239.318 60.4613 239.432 60.3311 239.583 60.2279C239.733 60.1223 239.913 60.0426 240.125 59.9886C240.336 59.9346 240.571 59.9077 240.832 59.9077H241.589ZM243.802 59.0067V62.2162H243.151V58.4085H243.784L243.802 59.0067ZM244.992 58.3874L244.988 58.9927C244.934 58.9809 244.882 58.9739 244.833 58.9716C244.786 58.9669 244.732 58.9645 244.671 58.9645C244.521 58.9645 244.389 58.988 244.274 59.0349C244.159 59.0818 244.061 59.1475 243.982 59.232C243.902 59.3164 243.838 59.4173 243.792 59.5346C243.747 59.6496 243.718 59.7763 243.704 59.9147L243.521 60.0203C243.521 59.7903 243.543 59.5745 243.587 59.3727C243.634 59.171 243.706 58.9927 243.802 58.8378C243.898 58.6806 244.02 58.5586 244.168 58.4718C244.318 58.3827 244.497 58.3381 244.703 58.3381C244.75 58.3381 244.804 58.344 244.865 58.3557C244.926 58.3651 244.968 58.3756 244.992 58.3874ZM246.726 61.8221L247.786 58.4085H248.483L246.955 62.8039C246.92 62.8978 246.873 62.9986 246.814 63.1066C246.758 63.2168 246.685 63.3212 246.596 63.4198C246.507 63.5183 246.399 63.5981 246.273 63.6591C246.148 63.7224 245.999 63.7541 245.826 63.7541C245.774 63.7541 245.708 63.747 245.629 63.733C245.549 63.7189 245.492 63.7072 245.46 63.6978L245.456 63.1699C245.475 63.1722 245.504 63.1746 245.544 63.1769C245.586 63.1816 245.616 63.184 245.632 63.184C245.78 63.184 245.905 63.164 246.009 63.1241C246.112 63.0866 246.199 63.0221 246.269 62.9306C246.342 62.8414 246.404 62.7183 246.456 62.5611L246.726 61.8221ZM245.949 58.4085L246.938 61.3646L247.107 62.0508L246.639 62.2901L245.238 58.4085H245.949Z" fill="black" fill-opacity="0.6"/>
<path d="M242.972 154.39H243.63L245.308 158.567L246.983 154.39H247.645L245.562 159.514H245.048L242.972 154.39ZM242.757 154.39H243.338L243.433 157.515V159.514H242.757V154.39ZM247.275 154.39H247.856V159.514H247.18V157.515L247.275 154.39ZM251.196 158.862V156.902C251.196 156.752 251.165 156.622 251.104 156.512C251.046 156.399 250.956 156.312 250.837 156.251C250.717 156.19 250.569 156.16 250.393 156.16C250.229 156.16 250.085 156.188 249.961 156.244C249.839 156.301 249.742 156.374 249.672 156.466C249.604 156.557 249.57 156.656 249.57 156.762H248.919C248.919 156.625 248.954 156.491 249.024 156.357C249.095 156.223 249.196 156.102 249.327 155.994C249.461 155.884 249.62 155.797 249.806 155.734C249.993 155.668 250.202 155.635 250.432 155.635C250.709 155.635 250.953 155.682 251.164 155.776C251.378 155.87 251.544 156.012 251.664 156.202C251.786 156.39 251.847 156.625 251.847 156.909V158.683C251.847 158.81 251.857 158.945 251.879 159.088C251.902 159.231 251.936 159.354 251.981 159.457V159.514H251.301C251.269 159.438 251.243 159.339 251.224 159.214C251.205 159.088 251.196 158.97 251.196 158.862ZM251.308 157.205L251.315 157.662H250.657C250.472 157.662 250.307 157.678 250.161 157.708C250.016 157.736 249.894 157.78 249.795 157.838C249.697 157.897 249.622 157.971 249.57 158.06C249.518 158.147 249.493 158.249 249.493 158.366C249.493 158.486 249.52 158.595 249.573 158.694C249.627 158.792 249.708 158.871 249.816 158.929C249.927 158.986 250.061 159.014 250.221 159.014C250.42 159.014 250.596 158.972 250.749 158.887C250.901 158.803 251.022 158.699 251.111 158.577C251.203 158.455 251.252 158.337 251.259 158.222L251.537 158.535C251.521 158.634 251.476 158.743 251.403 158.862C251.331 158.982 251.233 159.097 251.111 159.207C250.992 159.315 250.849 159.406 250.682 159.478C250.518 159.549 250.332 159.584 250.126 159.584C249.868 159.584 249.642 159.533 249.447 159.433C249.254 159.332 249.104 159.197 248.996 159.028C248.891 158.857 248.838 158.665 248.838 158.454C248.838 158.25 248.878 158.071 248.958 157.916C249.037 157.759 249.152 157.628 249.302 157.525C249.453 157.42 249.633 157.34 249.844 157.286C250.056 157.232 250.291 157.205 250.552 157.205H251.308ZM253.522 156.304V159.514H252.871V155.706H253.504L253.522 156.304ZM254.711 155.685L254.708 156.29C254.654 156.278 254.602 156.271 254.553 156.269C254.506 156.264 254.452 156.262 254.391 156.262C254.241 156.262 254.108 156.285 253.994 156.332C253.879 156.379 253.781 156.445 253.701 156.529C253.622 156.614 253.558 156.715 253.511 156.832C253.467 156.947 253.437 157.074 253.423 157.212L253.24 157.318C253.24 157.088 253.263 156.872 253.307 156.67C253.354 156.468 253.426 156.29 253.522 156.135C253.618 155.978 253.74 155.856 253.888 155.769C254.038 155.68 254.216 155.635 254.423 155.635C254.47 155.635 254.524 155.641 254.585 155.653C254.646 155.662 254.688 155.673 254.711 155.685ZM256.767 159.049C256.921 159.049 257.065 159.017 257.196 158.954C257.327 158.891 257.435 158.804 257.52 158.694C257.604 158.581 257.652 158.453 257.664 158.31H258.283C258.272 158.535 258.195 158.745 258.055 158.94C257.916 159.132 257.734 159.288 257.509 159.408C257.284 159.525 257.036 159.584 256.767 159.584C256.48 159.584 256.231 159.533 256.017 159.433C255.806 159.332 255.63 159.193 255.489 159.017C255.351 158.841 255.246 158.64 255.176 158.412C255.108 158.182 255.074 157.939 255.074 157.684V157.536C255.074 157.28 255.108 157.038 255.176 156.811C255.246 156.581 255.351 156.378 255.489 156.202C255.63 156.026 255.806 155.888 256.017 155.787C256.231 155.686 256.48 155.635 256.767 155.635C257.065 155.635 257.325 155.696 257.548 155.818C257.771 155.938 257.946 156.102 258.072 156.311C258.201 156.518 258.272 156.752 258.283 157.015H257.664C257.652 156.858 257.608 156.716 257.53 156.589C257.455 156.462 257.352 156.362 257.221 156.286C257.092 156.209 256.94 156.17 256.767 156.17C256.567 156.17 256.399 156.21 256.263 156.29C256.13 156.367 256.023 156.473 255.943 156.607C255.866 156.738 255.809 156.885 255.774 157.047C255.741 157.206 255.725 157.369 255.725 157.536V157.684C255.725 157.85 255.741 158.014 255.774 158.176C255.807 158.338 255.862 158.485 255.94 158.616C256.019 158.748 256.126 158.853 256.26 158.933C256.396 159.01 256.565 159.049 256.767 159.049ZM259.666 154.108V159.514H259.015V154.108H259.666ZM259.512 157.465L259.241 157.455C259.243 157.194 259.282 156.954 259.357 156.733C259.432 156.511 259.537 156.317 259.673 156.153C259.809 155.988 259.971 155.862 260.159 155.773C260.349 155.681 260.559 155.635 260.789 155.635C260.977 155.635 261.146 155.661 261.296 155.713C261.446 155.762 261.574 155.842 261.679 155.952C261.787 156.062 261.869 156.206 261.926 156.381C261.982 156.555 262.01 156.767 262.01 157.018V159.514H261.356V157.011C261.356 156.812 261.326 156.652 261.268 156.533C261.209 156.411 261.123 156.323 261.011 156.269C260.898 156.213 260.76 156.184 260.595 156.184C260.434 156.184 260.286 156.218 260.152 156.286C260.021 156.354 259.907 156.448 259.811 156.568C259.717 156.688 259.643 156.825 259.589 156.98C259.537 157.132 259.512 157.294 259.512 157.465Z" fill="black" fill-opacity="0.6"/>
<g clip-path="url(#clip0_1_17)">
<rect x="125.405" y="123.243" width="8.64865" height="7.20721" rx="2.88288" fill="#FAFAFA"/>
<path d="M127.971 124.091V129.243H127.32V124.904L126.008 125.383V124.795L127.869 124.091H127.971ZM133.102 126.273V127.054C133.102 127.474 133.065 127.829 132.989 128.117C132.914 128.406 132.806 128.638 132.666 128.814C132.525 128.99 132.355 129.118 132.155 129.198C131.958 129.275 131.735 129.314 131.487 129.314C131.29 129.314 131.108 129.289 130.941 129.24C130.775 129.19 130.625 129.112 130.491 129.004C130.36 128.894 130.247 128.751 130.153 128.575C130.059 128.399 129.988 128.185 129.938 127.934C129.889 127.683 129.864 127.39 129.864 127.054V126.273C129.864 125.853 129.902 125.501 129.977 125.217C130.055 124.933 130.164 124.706 130.304 124.535C130.445 124.361 130.614 124.237 130.811 124.162C131.011 124.087 131.233 124.049 131.48 124.049C131.679 124.049 131.862 124.074 132.029 124.123C132.198 124.17 132.348 124.246 132.479 124.352C132.611 124.455 132.722 124.593 132.814 124.767C132.907 124.938 132.979 125.148 133.028 125.397C133.077 125.646 133.102 125.938 133.102 126.273ZM132.448 127.16V126.164C132.448 125.934 132.433 125.732 132.405 125.559C132.38 125.383 132.341 125.233 132.289 125.108C132.238 124.984 132.172 124.883 132.092 124.806C132.015 124.728 131.924 124.672 131.821 124.637C131.72 124.599 131.606 124.58 131.48 124.58C131.325 124.58 131.188 124.61 131.068 124.668C130.948 124.725 130.848 124.815 130.765 124.939C130.686 125.064 130.625 125.227 130.582 125.429C130.54 125.63 130.519 125.875 130.519 126.164V127.16C130.519 127.39 130.532 127.593 130.558 127.769C130.586 127.945 130.627 128.097 130.681 128.226C130.735 128.353 130.801 128.457 130.878 128.539C130.955 128.622 131.045 128.683 131.145 128.722C131.249 128.76 131.362 128.779 131.487 128.779C131.646 128.779 131.786 128.748 131.906 128.687C132.025 128.626 132.125 128.531 132.205 128.402C132.287 128.271 132.348 128.103 132.388 127.899C132.428 127.692 132.448 127.446 132.448 127.16Z" fill="black" fill-opacity="0.38"/>
</g>
<g clip-path="url(#clip1_1_17)">
<rect width="8.64865" height="8.64865" transform="translate(125.405 108.829)" fill="#FAFAFA"/>
<path d="M129.189 114.294V114.829H125.835V114.361L127.514 112.492C127.72 112.262 127.88 112.067 127.992 111.908C128.107 111.746 128.187 111.602 128.232 111.475C128.279 111.346 128.302 111.215 128.302 111.081C128.302 110.912 128.267 110.76 128.196 110.623C128.128 110.485 128.027 110.375 127.894 110.293C127.76 110.211 127.598 110.169 127.408 110.169C127.181 110.169 126.991 110.214 126.838 110.303C126.688 110.39 126.575 110.512 126.5 110.669C126.425 110.826 126.388 111.007 126.388 111.211H125.737C125.737 110.923 125.8 110.659 125.927 110.419C126.053 110.18 126.241 109.99 126.49 109.849C126.738 109.706 127.044 109.635 127.408 109.635C127.732 109.635 128.009 109.692 128.239 109.807C128.469 109.92 128.645 110.079 128.767 110.286C128.891 110.49 128.953 110.729 128.953 111.004C128.953 111.154 128.927 111.306 128.876 111.461C128.826 111.614 128.757 111.766 128.668 111.919C128.581 112.071 128.479 112.221 128.362 112.369C128.247 112.517 128.124 112.662 127.992 112.805L126.62 114.294H129.189ZM133.102 111.859V112.64C133.102 113.06 133.065 113.414 132.989 113.703C132.914 113.991 132.806 114.224 132.666 114.4C132.525 114.575 132.355 114.703 132.155 114.783C131.958 114.861 131.735 114.899 131.487 114.899C131.29 114.899 131.108 114.875 130.941 114.825C130.775 114.776 130.625 114.697 130.491 114.59C130.36 114.479 130.247 114.336 130.153 114.16C130.059 113.984 129.988 113.771 129.938 113.52C129.889 113.269 129.864 112.975 129.864 112.64V111.859C129.864 111.439 129.902 111.087 129.977 110.803C130.055 110.519 130.164 110.291 130.304 110.12C130.445 109.947 130.614 109.822 130.811 109.747C131.011 109.672 131.233 109.635 131.48 109.635C131.679 109.635 131.862 109.659 132.029 109.708C132.198 109.755 132.348 109.832 132.479 109.937C132.611 110.04 132.722 110.179 132.814 110.352C132.907 110.524 132.979 110.734 133.028 110.982C133.077 111.231 133.102 111.523 133.102 111.859ZM132.448 112.746V111.75C132.448 111.52 132.433 111.318 132.405 111.144C132.38 110.968 132.341 110.818 132.289 110.694C132.238 110.57 132.172 110.469 132.092 110.391C132.015 110.314 131.924 110.257 131.821 110.222C131.72 110.185 131.606 110.166 131.48 110.166C131.325 110.166 131.188 110.195 131.068 110.254C130.948 110.31 130.848 110.401 130.765 110.525C130.686 110.649 130.625 110.812 130.582 111.014C130.54 111.216 130.519 111.461 130.519 111.75V112.746C130.519 112.975 130.532 113.178 130.558 113.354C130.586 113.53 130.627 113.683 130.681 113.812C130.735 113.938 130.801 114.043 130.878 114.125C130.955 114.207 131.045 114.268 131.145 114.308C131.249 114.346 131.362 114.364 131.487 114.364C131.646 114.364 131.786 114.334 131.906 114.273C132.025 114.212 132.125 114.117 132.205 113.988C132.287 113.856 132.348 113.689 132.388 113.485C132.428 113.278 132.448 113.032 132.448 112.746Z" fill="black" fill-opacity="0.38"/>
</g>
<g clip-path="url(#clip2_1_17)">
<rect width="8.64865" height="8.64865" transform="translate(125.405 94.4144)" fill="#FAFAFA"/>
<path d="M126.782 97.5322H127.246C127.474 97.5322 127.662 97.4947 127.809 97.4196C127.959 97.3422 128.071 97.2378 128.144 97.1064C128.219 96.9727 128.256 96.8225 128.256 96.6559C128.256 96.4589 128.223 96.2935 128.158 96.1597C128.092 96.026 127.993 95.9251 127.862 95.8571C127.731 95.7891 127.564 95.755 127.362 95.755C127.179 95.755 127.017 95.7914 126.877 95.8641C126.738 95.9345 126.629 96.0354 126.549 96.1668C126.472 96.2982 126.433 96.453 126.433 96.6313H125.782C125.782 96.3709 125.848 96.1339 125.979 95.9204C126.111 95.7069 126.295 95.5368 126.532 95.4102C126.771 95.2835 127.048 95.2201 127.362 95.2201C127.672 95.2201 127.943 95.2753 128.175 95.3855C128.408 95.4934 128.588 95.6553 128.717 95.8712C128.846 96.0847 128.911 96.3509 128.911 96.67C128.911 96.799 128.88 96.9375 128.819 97.0853C128.761 97.2307 128.668 97.3668 128.541 97.4935C128.417 97.6202 128.255 97.7246 128.056 97.8067C127.856 97.8865 127.617 97.9263 127.338 97.9263H126.782V97.5322ZM126.782 98.0671V97.6765H127.338C127.664 97.6765 127.934 97.7152 128.147 97.7926C128.361 97.87 128.528 97.9733 128.65 98.1023C128.775 98.2313 128.862 98.3733 128.911 98.5281C128.962 98.6806 128.988 98.8331 128.988 98.9856C128.988 99.2249 128.947 99.4372 128.865 99.6226C128.785 99.8079 128.671 99.9651 128.524 100.094C128.378 100.223 128.207 100.321 128.01 100.386C127.813 100.452 127.598 100.485 127.366 100.485C127.143 100.485 126.933 100.453 126.736 100.39C126.541 100.326 126.369 100.235 126.219 100.115C126.069 99.9933 125.951 99.8443 125.867 99.6683C125.782 99.49 125.74 99.2871 125.74 99.0595H126.391C126.391 99.2378 126.43 99.3938 126.507 99.5276C126.587 99.6613 126.7 99.7657 126.845 99.8408C126.993 99.9135 127.166 99.9499 127.366 99.9499C127.565 99.9499 127.737 99.9158 127.88 99.8478C128.025 99.7774 128.137 99.6718 128.214 99.5311C128.294 99.3903 128.334 99.2132 128.334 98.9997C128.334 98.7862 128.289 98.6114 128.2 98.4753C128.111 98.3369 127.984 98.2349 127.82 98.1692C127.658 98.1011 127.467 98.0671 127.246 98.0671H126.782ZM133.102 97.4442V98.2255C133.102 98.6454 133.065 98.9997 132.989 99.2883C132.914 99.5768 132.806 99.8091 132.666 99.985C132.525 100.161 132.355 100.289 132.155 100.369C131.958 100.446 131.735 100.485 131.487 100.485C131.29 100.485 131.108 100.46 130.941 100.411C130.775 100.362 130.625 100.283 130.491 100.175C130.36 100.065 130.247 99.9217 130.153 99.7457C130.059 99.5698 129.988 99.3563 129.938 99.1053C129.889 98.8542 129.864 98.561 129.864 98.2255V97.4442C129.864 97.0243 129.902 96.6724 129.977 96.3885C130.055 96.1046 130.164 95.877 130.304 95.7058C130.445 95.5322 130.614 95.4078 130.811 95.3327C131.011 95.2577 131.233 95.2201 131.48 95.2201C131.679 95.2201 131.862 95.2448 132.029 95.294C132.198 95.3409 132.348 95.4172 132.479 95.5228C132.611 95.626 132.722 95.7644 132.814 95.938C132.907 96.1093 132.979 96.3193 133.028 96.568C133.077 96.8166 133.102 97.1087 133.102 97.4442ZM132.448 98.331V97.3351C132.448 97.1052 132.433 96.9034 132.405 96.7298C132.38 96.5539 132.341 96.4037 132.289 96.2794C132.238 96.155 132.172 96.0542 132.092 95.9767C132.015 95.8993 131.924 95.843 131.821 95.8078C131.72 95.7703 131.606 95.7515 131.48 95.7515C131.325 95.7515 131.188 95.7808 131.068 95.8395C130.948 95.8958 130.848 95.9861 130.765 96.1105C130.686 96.2348 130.625 96.3979 130.582 96.5996C130.54 96.8014 130.519 97.0466 130.519 97.3351V98.331C130.519 98.561 130.532 98.7639 130.558 98.9399C130.586 99.1158 130.627 99.2683 130.681 99.3974C130.735 99.524 130.801 99.6284 130.878 99.7106C130.955 99.7927 131.045 99.8537 131.145 99.8935C131.249 99.9311 131.362 99.9499 131.487 99.9499C131.646 99.9499 131.786 99.9194 131.906 99.8584C132.025 99.7974 132.125 99.7023 132.205 99.5733C132.287 99.4419 132.348 99.2742 132.388 99.0701C132.428 98.8636 132.448 98.6173 132.448 98.331Z" fill="black" fill-opacity="0.38"/>
</g>
<g clip-path="url(#clip3_1_17)">
<rect width="8.64865" height="8.64865" transform="translate(125.405 80)" fill="#FAFAFA"/>
<path d="M129.294 84.2756V84.8105H125.592V84.4269L127.887 80.8761H128.418L127.848 81.9037L126.331 84.2756H129.294ZM128.58 80.8761V86H127.929V80.8761H128.58ZM133.102 83.0298V83.8111C133.102 84.231 133.065 84.5853 132.989 84.8739C132.914 85.1624 132.806 85.3947 132.666 85.5706C132.525 85.7466 132.355 85.8745 132.155 85.9542C131.958 86.0317 131.735 86.0704 131.487 86.0704C131.29 86.0704 131.108 86.0457 130.941 85.9965C130.775 85.9472 130.625 85.8686 130.491 85.7607C130.36 85.6504 130.247 85.5073 130.153 85.3313C130.059 85.1554 129.988 84.9419 129.938 84.6909C129.889 84.4398 129.864 84.1466 129.864 83.8111V83.0298C129.864 82.6099 129.902 82.258 129.977 81.9741C130.055 81.6902 130.164 81.4626 130.304 81.2914C130.445 81.1178 130.614 80.9934 130.811 80.9183C131.011 80.8433 131.233 80.8057 131.48 80.8057C131.679 80.8057 131.862 80.8304 132.029 80.8796C132.198 80.9266 132.348 81.0028 132.479 81.1084C132.611 81.2116 132.722 81.35 132.814 81.5236C132.907 81.6949 132.979 81.9049 133.028 82.1536C133.077 82.4022 133.102 82.6943 133.102 83.0298ZM132.448 83.9167V82.9207C132.448 82.6908 132.433 82.4891 132.405 82.3154C132.38 82.1395 132.341 81.9893 132.289 81.865C132.238 81.7406 132.172 81.6398 132.092 81.5623C132.015 81.4849 131.924 81.4286 131.821 81.3934C131.72 81.3559 131.606 81.3371 131.48 81.3371C131.325 81.3371 131.188 81.3664 131.068 81.4251C130.948 81.4814 130.848 81.5717 130.765 81.6961C130.686 81.8204 130.625 81.9835 130.582 82.1852C130.54 82.387 130.519 82.6322 130.519 82.9207V83.9167C130.519 84.1466 130.532 84.3495 130.558 84.5255C130.586 84.7014 130.627 84.8539 130.681 84.983C130.735 85.1096 130.801 85.214 130.878 85.2962C130.955 85.3783 131.045 85.4393 131.145 85.4792C131.249 85.5167 131.362 85.5355 131.487 85.5355C131.646 85.5355 131.786 85.505 131.906 85.444C132.025 85.383 132.125 85.2879 132.205 85.1589C132.287 85.0275 132.348 84.8598 132.388 84.6557C132.428 84.4492 132.448 84.2029 132.448 83.9167Z" fill="black" fill-opacity="0.38"/>
</g>
<g clip-path="url(#clip4_1_17)">
<rect width="8.64865" height="8.64865" transform="translate(125.405 65.5856)" fill="#FAFAFA"/>
<path d="M126.655 69.1468L126.134 69.0131L126.391 66.4617H129.02V67.0635H126.944L126.789 68.4571C126.883 68.4031 127.001 68.3527 127.144 68.3057C127.29 68.2588 127.456 68.2354 127.644 68.2354C127.881 68.2354 128.093 68.2764 128.281 68.3585C128.469 68.4383 128.628 68.5533 128.759 68.7034C128.893 68.8536 128.995 69.0342 129.066 69.2454C129.136 69.4565 129.171 69.6923 129.171 69.9527C129.171 70.199 129.137 70.4254 129.069 70.6319C129.003 70.8384 128.904 71.019 128.77 71.1738C128.636 71.3263 128.467 71.4448 128.263 71.5293C128.062 71.6137 127.823 71.656 127.549 71.656C127.342 71.656 127.147 71.6278 126.961 71.5715C126.778 71.5129 126.614 71.4249 126.469 71.3076C126.325 71.1879 126.208 71.0401 126.117 70.8642C126.027 70.6859 125.971 70.4771 125.948 70.2378H126.567C126.595 70.4301 126.652 70.592 126.736 70.7234C126.82 70.8548 126.931 70.9545 127.067 71.0225C127.205 71.0882 127.366 71.1211 127.549 71.1211C127.704 71.1211 127.841 71.0941 127.961 71.0401C128.08 70.9862 128.181 70.9087 128.263 70.8079C128.345 70.707 128.408 70.585 128.45 70.4419C128.494 70.2988 128.517 70.138 128.517 69.9597C128.517 69.7979 128.494 69.6477 128.45 69.5093C128.405 69.3709 128.338 69.25 128.249 69.1468C128.162 69.0436 128.056 68.9638 127.929 68.9075C127.802 68.8489 127.657 68.8195 127.493 68.8195C127.274 68.8195 127.109 68.8489 126.996 68.9075C126.886 68.9662 126.772 69.0459 126.655 69.1468ZM133.102 68.6154V69.3967C133.102 69.8166 133.065 70.1709 132.989 70.4595C132.914 70.748 132.806 70.9803 132.666 71.1563C132.525 71.3322 132.355 71.4601 132.155 71.5398C131.958 71.6173 131.735 71.656 131.487 71.656C131.29 71.656 131.108 71.6313 130.941 71.5821C130.775 71.5328 130.625 71.4542 130.491 71.3463C130.36 71.236 130.247 71.0929 130.153 70.9169C130.059 70.741 129.988 70.5275 129.938 70.2765C129.889 70.0254 129.864 69.7322 129.864 69.3967V68.6154C129.864 68.1955 129.902 67.8436 129.977 67.5597C130.055 67.2758 130.164 67.0482 130.304 66.877C130.445 66.7034 130.614 66.579 130.811 66.5039C131.011 66.4289 131.233 66.3913 131.48 66.3913C131.679 66.3913 131.862 66.416 132.029 66.4652C132.198 66.5122 132.348 66.5884 132.479 66.694C132.611 66.7972 132.722 66.9356 132.814 67.1092C132.907 67.2805 132.979 67.4905 133.028 67.7392C133.077 67.9878 133.102 68.2799 133.102 68.6154ZM132.448 69.5023V68.5063C132.448 68.2764 132.433 68.0747 132.405 67.901C132.38 67.7251 132.341 67.5749 132.289 67.4506C132.238 67.3262 132.172 67.2254 132.092 67.1479C132.015 67.0705 131.924 67.0142 131.821 66.979C131.72 66.9415 131.606 66.9227 131.48 66.9227C131.325 66.9227 131.188 66.952 131.068 67.0107C130.948 67.067 130.848 67.1573 130.765 67.2817C130.686 67.406 130.625 67.5691 130.582 67.7708C130.54 67.9726 130.519 68.2178 130.519 68.5063V69.5023C130.519 69.7322 130.532 69.9351 130.558 70.1111C130.586 70.287 130.627 70.4395 130.681 70.5686C130.735 70.6952 130.801 70.7996 130.878 70.8818C130.955 70.9639 131.045 71.0249 131.145 71.0648C131.249 71.1023 131.362 71.1211 131.487 71.1211C131.646 71.1211 131.786 71.0906 131.906 71.0296C132.025 70.9686 132.125 70.8735 132.205 70.7445C132.287 70.6131 132.348 70.4454 132.388 70.2413C132.428 70.0348 132.448 69.7885 132.448 69.5023Z" fill="black" fill-opacity="0.38"/>
</g>
<g clip-path="url(#clip5_1_17)">
<rect width="8.64865" height="8.64865" transform="translate(125.405 51.1712)" fill="#FAFAFA"/>
<path d="M128.33 52.0403H128.386V52.5928H128.33C127.985 52.5928 127.697 52.6491 127.464 52.7617C127.232 52.872 127.048 53.0209 126.912 53.2086C126.776 53.394 126.677 53.6028 126.616 53.835C126.558 54.0673 126.528 54.3031 126.528 54.5424V55.2955C126.528 55.5231 126.555 55.7248 126.609 55.9008C126.663 56.0744 126.737 56.221 126.831 56.3407C126.925 56.4603 127.03 56.5506 127.148 56.6116C127.267 56.6726 127.392 56.7031 127.521 56.7031C127.671 56.7031 127.805 56.675 127.922 56.6187C128.039 56.56 128.138 56.4791 128.218 56.3759C128.3 56.2703 128.362 56.1459 128.404 56.0028C128.446 55.8597 128.467 55.7025 128.467 55.5313C128.467 55.3788 128.449 55.2321 128.411 55.0914C128.374 54.9483 128.316 54.8216 128.239 54.7113C128.161 54.5987 128.064 54.5107 127.947 54.4474C127.832 54.3817 127.694 54.3488 127.535 54.3488C127.354 54.3488 127.185 54.3934 127.028 54.4826C126.873 54.5694 126.745 54.6843 126.644 54.8274C126.546 54.9682 126.49 55.1219 126.476 55.2884L126.131 55.2849C126.164 55.0222 126.225 54.7981 126.314 54.6128C126.405 54.4251 126.518 54.2726 126.652 54.1553C126.788 54.0356 126.939 53.9488 127.105 53.8949C127.274 53.8386 127.453 53.8104 127.64 53.8104C127.896 53.8104 128.117 53.8585 128.302 53.9547C128.487 54.0509 128.64 54.1799 128.759 54.3418C128.879 54.5013 128.967 54.682 129.023 54.8837C129.082 55.0832 129.111 55.2884 129.111 55.4996C129.111 55.7412 129.077 55.9676 129.009 56.1788C128.941 56.3899 128.839 56.5753 128.703 56.7348C128.569 56.8943 128.404 57.0187 128.207 57.1078C128.01 57.197 127.781 57.2416 127.521 57.2416C127.244 57.2416 127.002 57.1853 126.796 57.0727C126.589 56.9577 126.418 56.8052 126.282 56.6152C126.146 56.4251 126.044 56.214 125.976 55.9817C125.908 55.7495 125.874 55.5137 125.874 55.2744V54.9682C125.874 54.6069 125.91 54.2526 125.983 53.9054C126.056 53.5582 126.181 53.2438 126.359 52.9623C126.54 52.6808 126.79 52.4567 127.109 52.2901C127.428 52.1236 127.835 52.0403 128.33 52.0403ZM133.102 54.201V54.9823C133.102 55.4022 133.065 55.7565 132.989 56.0451C132.914 56.3336 132.806 56.5659 132.666 56.7419C132.525 56.9178 132.355 57.0457 132.155 57.1254C131.958 57.2029 131.735 57.2416 131.487 57.2416C131.29 57.2416 131.108 57.2169 130.941 57.1677C130.775 57.1184 130.625 57.0398 130.491 56.9319C130.36 56.8216 130.247 56.6785 130.153 56.5026C130.059 56.3266 129.988 56.1131 129.938 55.8621C129.889 55.611 129.864 55.3178 129.864 54.9823V54.201C129.864 53.7811 129.902 53.4292 129.977 53.1453C130.055 52.8614 130.164 52.6338 130.304 52.4626C130.445 52.289 130.614 52.1646 130.811 52.0895C131.011 52.0145 131.233 51.9769 131.48 51.9769C131.679 51.9769 131.862 52.0016 132.029 52.0508C132.198 52.0978 132.348 52.174 132.479 52.2796C132.611 52.3828 132.722 52.5212 132.814 52.6948C132.907 52.8661 132.979 53.0761 133.028 53.3248C133.077 53.5734 133.102 53.8655 133.102 54.201ZM132.448 55.0879V54.0919C132.448 53.862 132.433 53.6603 132.405 53.4866C132.38 53.3107 132.341 53.1605 132.289 53.0362C132.238 52.9119 132.172 52.811 132.092 52.7335C132.015 52.6561 131.924 52.5998 131.821 52.5646C131.72 52.5271 131.606 52.5083 131.48 52.5083C131.325 52.5083 131.188 52.5376 131.068 52.5963C130.948 52.6526 130.848 52.7429 130.765 52.8673C130.686 52.9916 130.625 53.1547 130.582 53.3564C130.54 53.5582 130.519 53.8034 130.519 54.0919V55.0879C130.519 55.3178 130.532 55.5207 130.558 55.6967C130.586 55.8726 130.627 56.0251 130.681 56.1542C130.735 56.2808 130.801 56.3852 130.878 56.4674C130.955 56.5495 131.045 56.6105 131.145 56.6504C131.249 56.6879 131.362 56.7067 131.487 56.7067C131.646 56.7067 131.786 56.6762 131.906 56.6152C132.025 56.5542 132.125 56.4591 132.205 56.3301C132.287 56.1987 132.348 56.031 132.388 55.8269C132.428 55.6204 132.448 55.3741 132.448 55.0879Z" fill="black" fill-opacity="0.38"/>
</g>
<g clip-path="url(#clip6_1_17)">
<rect width="8.64865" height="8.64865" transform="translate(125.405 36.7568)" fill="#FAFAFA"/>
<path d="M129.143 37.6329V37.9988L127.021 42.7567H126.335L128.453 38.1678H125.68V37.6329H129.143ZM133.102 39.7866V40.5678C133.102 40.9878 133.065 41.342 132.989 41.6306C132.914 41.9192 132.806 42.1514 132.666 42.3274C132.525 42.5034 132.355 42.6312 132.155 42.711C131.958 42.7884 131.735 42.8271 131.487 42.8271C131.29 42.8271 131.108 42.8025 130.941 42.7532C130.775 42.7039 130.625 42.6253 130.491 42.5174C130.36 42.4072 130.247 42.264 130.153 42.0881C130.059 41.9121 129.988 41.6986 129.938 41.4476C129.889 41.1966 129.864 40.9033 129.864 40.5678V39.7866C129.864 39.3666 129.902 39.0147 129.977 38.7308C130.055 38.447 130.164 38.2194 130.304 38.0481C130.445 37.8745 130.614 37.7502 130.811 37.6751C131.011 37.6 131.233 37.5625 131.48 37.5625C131.679 37.5625 131.862 37.5871 132.029 37.6364C132.198 37.6833 132.348 37.7595 132.479 37.8651C132.611 37.9683 132.722 38.1068 132.814 38.2804C132.907 38.4516 132.979 38.6616 133.028 38.9103C133.077 39.159 133.102 39.4511 133.102 39.7866ZM132.448 40.6734V39.6775C132.448 39.4476 132.433 39.2458 132.405 39.0722C132.38 38.8962 132.341 38.7461 132.289 38.6217C132.238 38.4974 132.172 38.3965 132.092 38.3191C132.015 38.2417 131.924 38.1854 131.821 38.1502C131.72 38.1126 131.606 38.0939 131.48 38.0939C131.325 38.0939 131.188 38.1232 131.068 38.1818C130.948 38.2381 130.848 38.3285 130.765 38.4528C130.686 38.5772 130.625 38.7402 130.582 38.942C130.54 39.1437 130.519 39.3889 130.519 39.6775V40.6734C130.519 40.9033 130.532 41.1063 130.558 41.2822C130.586 41.4582 130.627 41.6107 130.681 41.7397C130.735 41.8664 130.801 41.9708 130.878 42.0529C130.955 42.135 131.045 42.196 131.145 42.2359C131.249 42.2734 131.362 42.2922 131.487 42.2922C131.646 42.2922 131.786 42.2617 131.906 42.2007C132.025 42.1397 132.125 42.0447 132.205 41.9157C132.287 41.7843 132.348 41.6165 132.388 41.4124C132.428 41.206 132.448 40.9596 132.448 40.6734Z" fill="black" fill-opacity="0.38"/>
</g>
<g clip-path="url(#clip7_1_17)">
<rect width="8.64865" height="8.64865" transform="translate(125.405 22.3423)" fill="#FAFAFA"/>
<path d="M129.062 26.9558C129.062 27.2678 128.989 27.5329 128.844 27.7511C128.701 27.967 128.506 28.1312 128.26 28.2438C128.016 28.3564 127.74 28.4127 127.433 28.4127C127.125 28.4127 126.849 28.3564 126.602 28.2438C126.356 28.1312 126.161 27.967 126.018 27.7511C125.875 27.5329 125.803 27.2678 125.803 26.9558C125.803 26.7517 125.842 26.5652 125.92 26.3962C125.999 26.225 126.111 26.076 126.254 25.9493C126.399 25.8226 126.571 25.7253 126.768 25.6572C126.967 25.5868 127.186 25.5516 127.426 25.5516C127.74 25.5516 128.02 25.6126 128.267 25.7346C128.513 25.8543 128.707 26.0197 128.847 26.2308C128.991 26.442 129.062 26.6836 129.062 26.9558ZM128.408 26.9417C128.408 26.7517 128.367 26.5839 128.284 26.4385C128.202 26.2907 128.087 26.1757 127.94 26.0936C127.792 26.0115 127.62 25.9704 127.426 25.9704C127.226 25.9704 127.054 26.0115 126.908 26.0936C126.765 26.1757 126.654 26.2907 126.574 26.4385C126.494 26.5839 126.454 26.7517 126.454 26.9417C126.454 27.1388 126.493 27.3077 126.571 27.4485C126.65 27.5869 126.763 27.6936 126.908 27.7687C127.056 27.8414 127.231 27.8778 127.433 27.8778C127.635 27.8778 127.808 27.8414 127.954 27.7687C128.099 27.6936 128.21 27.5869 128.288 27.4485C128.368 27.3077 128.408 27.1388 128.408 26.9417ZM128.942 24.5522C128.942 24.8009 128.877 25.025 128.745 25.2244C128.614 25.4238 128.435 25.581 128.207 25.6959C127.979 25.8109 127.721 25.8684 127.433 25.8684C127.139 25.8684 126.878 25.8109 126.648 25.6959C126.42 25.581 126.242 25.4238 126.113 25.2244C125.984 25.025 125.92 24.8009 125.92 24.5522C125.92 24.2543 125.984 24.0009 126.113 23.7921C126.244 23.5833 126.424 23.4237 126.652 23.3135C126.879 23.2032 127.138 23.1481 127.429 23.1481C127.723 23.1481 127.983 23.2032 128.21 23.3135C128.438 23.4237 128.616 23.5833 128.745 23.7921C128.877 24.0009 128.942 24.2543 128.942 24.5522ZM128.291 24.5628C128.291 24.3915 128.255 24.2402 128.182 24.1088C128.11 23.9774 128.009 23.8742 127.88 23.7991C127.751 23.7217 127.601 23.683 127.429 23.683C127.258 23.683 127.108 23.7193 126.979 23.7921C126.852 23.8625 126.752 23.9633 126.68 24.0947C126.609 24.2261 126.574 24.3821 126.574 24.5628C126.574 24.7387 126.609 24.8924 126.68 25.0238C126.752 25.1552 126.853 25.2572 126.982 25.3299C127.111 25.4027 127.261 25.439 127.433 25.439C127.604 25.439 127.753 25.4027 127.88 25.3299C128.009 25.2572 128.11 25.1552 128.182 25.0238C128.255 24.8924 128.291 24.7387 128.291 24.5628ZM133.102 25.3722V26.1534C133.102 26.5734 133.065 26.9276 132.989 27.2162C132.914 27.5048 132.806 27.737 132.666 27.913C132.525 28.089 132.355 28.2168 132.155 28.2966C131.958 28.374 131.735 28.4127 131.487 28.4127C131.29 28.4127 131.108 28.3881 130.941 28.3388C130.775 28.2895 130.625 28.2109 130.491 28.103C130.36 27.9928 130.247 27.8497 130.153 27.6737C130.059 27.4977 129.988 27.2842 129.938 27.0332C129.889 26.7822 129.864 26.4889 129.864 26.1534V25.3722C129.864 24.9522 129.902 24.6003 129.977 24.3164C130.055 24.0326 130.164 23.805 130.304 23.6337C130.445 23.4601 130.614 23.3358 130.811 23.2607C131.011 23.1856 131.233 23.1481 131.48 23.1481C131.679 23.1481 131.862 23.1727 132.029 23.222C132.198 23.2689 132.348 23.3451 132.479 23.4507C132.611 23.5539 132.722 23.6924 132.814 23.866C132.907 24.0372 132.979 24.2472 133.028 24.4959C133.077 24.7446 133.102 25.0367 133.102 25.3722ZM132.448 26.259V25.2631C132.448 25.0332 132.433 24.8314 132.405 24.6578C132.38 24.4818 132.341 24.3317 132.289 24.2073C132.238 24.083 132.172 23.9821 132.092 23.9047C132.015 23.8273 131.924 23.771 131.821 23.7358C131.72 23.6982 131.606 23.6795 131.48 23.6795C131.325 23.6795 131.188 23.7088 131.068 23.7674C130.948 23.8237 130.848 23.9141 130.765 24.0384C130.686 24.1628 130.625 24.3258 130.582 24.5276C130.54 24.7293 130.519 24.9745 130.519 25.2631V26.259C130.519 26.4889 130.532 26.6919 130.558 26.8678C130.586 27.0438 130.627 27.1963 130.681 27.3253C130.735 27.452 130.801 27.5564 130.878 27.6385C130.955 27.7206 131.045 27.7816 131.145 27.8215C131.249 27.859 131.362 27.8778 131.487 27.8778C131.646 27.8778 131.786 27.8473 131.906 27.7863C132.025 27.7253 132.125 27.6303 132.205 27.5013C132.287 27.3699 132.348 27.2021 132.388 26.998C132.428 26.7916 132.448 26.5452 132.448 26.259Z" fill="black" fill-opacity="0.38"/>
</g>
<g clip-path="url(#clip8_1_17)">
<rect width="8.64865" height="8.64865" transform="translate(125.405 7.92793)" fill="#FAFAFA"/>
<path d="M126.479 13.3825H126.546C126.921 13.3825 127.226 13.3297 127.461 13.2241C127.696 13.1185 127.876 12.9766 128.003 12.7983C128.13 12.62 128.216 12.4194 128.263 12.1965C128.31 11.9713 128.334 11.7402 128.334 11.5032V10.7185C128.334 10.4862 128.307 10.2797 128.253 10.0991C128.201 9.91845 128.128 9.76712 128.035 9.64513C127.943 9.52313 127.839 9.43046 127.721 9.36711C127.604 9.30377 127.48 9.2721 127.348 9.2721C127.198 9.2721 127.063 9.3026 126.944 9.36359C126.826 9.42225 126.727 9.50553 126.644 9.61345C126.565 9.72137 126.504 9.84806 126.461 9.99352C126.419 10.139 126.398 10.2973 126.398 10.4686C126.398 10.6211 126.417 10.7689 126.454 10.912C126.492 11.0551 126.549 11.1842 126.627 11.2991C126.704 11.4141 126.8 11.5056 126.915 11.5736C127.033 11.6393 127.17 11.6722 127.327 11.6722C127.473 11.6722 127.609 11.644 127.735 11.5877C127.864 11.529 127.978 11.4504 128.077 11.3519C128.178 11.251 128.257 11.1372 128.316 11.0106C128.377 10.8839 128.412 10.7513 128.422 10.6129H128.731C128.731 10.8076 128.693 11 128.615 11.19C128.54 11.3777 128.435 11.549 128.298 11.7038C128.162 11.8587 128.003 11.983 127.82 12.0769C127.637 12.1684 127.437 12.2141 127.222 12.2141C126.968 12.2141 126.749 12.1648 126.564 12.0663C126.378 11.9678 126.226 11.8364 126.106 11.6722C125.989 11.5079 125.901 11.3249 125.842 11.1232C125.786 10.9191 125.758 10.7126 125.758 10.5038C125.758 10.2598 125.792 10.0311 125.86 9.81756C125.928 9.60407 126.029 9.41638 126.162 9.2545C126.296 9.09027 126.461 8.96241 126.659 8.87091C126.858 8.77942 127.088 8.73367 127.348 8.73367C127.642 8.73367 127.891 8.79232 128.098 8.90963C128.304 9.02693 128.472 9.18412 128.601 9.38119C128.732 9.57826 128.829 9.79997 128.89 10.0463C128.951 10.2926 128.981 10.546 128.981 10.8064V11.0422C128.981 11.3073 128.964 11.5771 128.928 11.8516C128.896 12.1238 128.831 12.3842 128.735 12.6329C128.641 12.8816 128.504 13.1044 128.323 13.3015C128.142 13.4962 127.907 13.6511 127.616 13.766C127.327 13.8787 126.971 13.935 126.546 13.935H126.479V13.3825ZM133.102 10.9578V11.739C133.102 12.159 133.065 12.5132 132.989 12.8018C132.914 13.0904 132.806 13.3226 132.666 13.4986C132.525 13.6745 132.355 13.8024 132.155 13.8822C131.958 13.9596 131.735 13.9983 131.487 13.9983C131.29 13.9983 131.108 13.9737 130.941 13.9244C130.775 13.8751 130.625 13.7965 130.491 13.6886C130.36 13.5784 130.247 13.4352 130.153 13.2593C130.059 13.0833 129.988 12.8698 129.938 12.6188C129.889 12.3678 129.864 12.0745 129.864 11.739V10.9578C129.864 10.5378 129.902 10.1859 129.977 9.90202C130.055 9.61815 130.164 9.39057 130.304 9.21931C130.445 9.0457 130.614 8.92136 130.811 8.84628C131.011 8.77121 131.233 8.73367 131.48 8.73367C131.679 8.73367 131.862 8.7583 132.029 8.80757C132.198 8.85449 132.348 8.93074 132.479 9.03631C132.611 9.13954 132.722 9.27796 132.814 9.45157C132.907 9.62284 132.979 9.83281 133.028 10.0815C133.077 10.3302 133.102 10.6223 133.102 10.9578ZM132.448 11.8446V10.8487C132.448 10.6188 132.433 10.417 132.405 10.2434C132.38 10.0674 132.341 9.91727 132.289 9.79293C132.238 9.66859 132.172 9.56771 132.092 9.49028C132.015 9.41286 131.924 9.35656 131.821 9.32137C131.72 9.28383 131.606 9.26506 131.48 9.26506C131.325 9.26506 131.188 9.29439 131.068 9.35304C130.948 9.40934 130.848 9.49967 130.765 9.62401C130.686 9.74835 130.625 9.91141 130.582 10.1132C130.54 10.3149 130.519 10.5601 130.519 10.8487V11.8446C130.519 12.0745 130.532 12.2774 130.558 12.4534C130.586 12.6294 130.627 12.7819 130.681 12.9109C130.735 13.0376 130.801 13.142 130.878 13.2241C130.955 13.3062 131.045 13.3672 131.145 13.4071C131.249 13.4446 131.362 13.4634 131.487 13.4634C131.646 13.4634 131.786 13.4329 131.906 13.3719C132.025 13.3109 132.125 13.2159 132.205 13.0868C132.287 12.9555 132.348 12.7877 132.388 12.5836C132.428 12.3772 132.448 12.1308 132.448 11.8446Z" fill="black" fill-opacity="0.38"/>
</g>
<path d="M124.25 145.366C124.173 145.266 124.049 145.213 123.924 145.227L31.5189 155.614L58.6348 77.4775H129.73C129.739 77.4775 129.747 77.4772 129.756 77.4765L207.953 71.7373L213.319 152.943L153.975 184.045L124.25 145.366Z" fill="#C5C7F6" fill-opacity="0.3" stroke="#C5C7F6" stroke-width="0.720721" stroke-linecap="round" stroke-linejoin="round"/>
<circle cx="207.928" cy="71.7117" r="1.08108" fill="#C5C7F6"/>
<circle cx="129.369" cy="77.4775" r="1.08108" fill="#C5C7F6"/>
<path d="M59.8198 77.4775C59.8198 78.0745 59.3358 78.5586 58.7387 78.5586C58.1417 78.5586 57.6577 78.0745 57.6577 77.4775C57.6577 76.8804 58.1417 76.3964 58.7387 76.3964C59.3358 76.3964 59.8198 76.8804 59.8198 77.4775Z" fill="#C5C7F6"/>
<circle cx="31.3513" cy="155.315" r="1.08108" fill="#C5C7F6"/>
<circle cx="123.604" cy="145.225" r="1.08108" fill="#C5C7F6"/>
<circle cx="153.874" cy="184.144" r="1.08108" fill="#C5C7F6"/>
<circle cx="212.973" cy="153.153" r="1.08108" fill="#C5C7F6"/>
<path d="M129.009 47.5676L150.991 116.036L184.505 146.306H135.495L91.8919 210.45L59.4595 148.829L73.1532 89.3694L129.009 47.5676Z" fill="#C2ECC1" fill-opacity="0.3" stroke="#C2ECC1" stroke-width="0.720721" stroke-linecap="round" stroke-linejoin="round"/>
<circle cx="128.649" cy="47.2072" r="1.08108" fill="#C2ECC1"/>
<circle cx="73.1531" cy="89.009" r="1.08108" fill="#C2ECC1"/>
<circle cx="59.4595" cy="148.829" r="1.08108" fill="#C2ECC1"/>
<circle cx="91.8919" cy="210.811" r="1.08108" fill="#C2ECC1"/>
<circle cx="135.856" cy="146.667" r="1.08108" fill="#C2ECC1"/>
<circle cx="184.144" cy="145.946" r="1.08108" fill="#C2ECC1"/>
<circle cx="150.991" cy="115.676" r="1.08108" fill="#C2ECC1"/>
<defs>
<clipPath id="clip0_1_17">
<rect x="125.405" y="123.243" width="8.64865" height="7.20721" rx="2.88288" fill="white"/>
</clipPath>
<clipPath id="clip1_1_17">
<rect width="8.64865" height="8.64865" fill="white" transform="translate(125.405 108.829)"/>
</clipPath>
<clipPath id="clip2_1_17">
<rect width="8.64865" height="8.64865" fill="white" transform="translate(125.405 94.4144)"/>
</clipPath>
<clipPath id="clip3_1_17">
<rect width="8.64865" height="8.64865" fill="white" transform="translate(125.405 80)"/>
</clipPath>
<clipPath id="clip4_1_17">
<rect width="8.64865" height="8.64865" fill="white" transform="translate(125.405 65.5856)"/>
</clipPath>
<clipPath id="clip5_1_17">
<rect width="8.64865" height="8.64865" fill="white" transform="translate(125.405 51.1712)"/>
</clipPath>
<clipPath id="clip6_1_17">
<rect width="8.64865" height="8.64865" fill="white" transform="translate(125.405 36.7568)"/>
</clipPath>
<clipPath id="clip7_1_17">
<rect width="8.64865" height="8.64865" fill="white" transform="translate(125.405 22.3423)"/>
</clipPath>
<clipPath id="clip8_1_17">
<rect width="8.64865" height="8.64865" fill="white" transform="translate(125.405 7.92793)"/>
</clipPath>
</defs>
</svg>
