<svg width="118" height="32" viewBox="0 0 118 32" fill="none" xmlns="http://www.w3.org/2000/svg">
<path d="M53.728 24H50.896L46.312 18.552V24H44.2V8.064H48.304C49.008 8.064 49.664 8.2 50.272 8.472C50.896 8.728 51.44 9.096 51.904 9.576C52.368 10.072 52.728 10.64 52.984 11.28C53.24 11.904 53.368 12.568 53.368 13.272C53.368 13.944 53.256 14.576 53.032 15.168C52.808 15.76 52.488 16.288 52.072 16.752C51.656 17.216 51.168 17.6 50.608 17.904C50.048 18.192 49.464 18.368 48.856 18.432L53.728 24ZM46.312 10.224V16.32H48.304C48.704 16.32 49.088 16.24 49.456 16.08C49.824 15.92 50.144 15.704 50.416 15.432C50.688 15.144 50.896 14.816 51.04 14.448C51.2 14.08 51.28 13.688 51.28 13.272C51.28 12.456 50.992 11.736 50.416 11.112C50.144 10.84 49.824 10.624 49.456 10.464C49.088 10.304 48.704 10.224 48.304 10.224H46.312ZM57.2328 18.912C57.2328 19.296 57.3688 19.696 57.6408 20.112C57.9288 20.528 58.2568 20.88 58.6248 21.168C59.2968 21.696 60.0808 21.96 60.9768 21.96C62.4008 21.96 63.5608 21.272 64.4568 19.896L66.2808 20.976C65.6568 21.984 64.8888 22.76 63.9768 23.304C63.0648 23.848 62.0648 24.12 60.9768 24.12C60.1608 24.12 59.3848 23.968 58.6488 23.664C57.9128 23.344 57.2648 22.904 56.7048 22.344C56.1448 21.784 55.7048 21.136 55.3848 20.4C55.0808 19.664 54.9288 18.888 54.9288 18.072C54.9288 17.256 55.0808 16.48 55.3848 15.744C55.7048 14.992 56.1448 14.336 56.7048 13.776C57.2488 13.216 57.8888 12.784 58.6248 12.48C59.3768 12.176 60.1608 12.024 60.9768 12.024C61.7928 12.024 62.5688 12.176 63.3048 12.48C64.0568 12.784 64.7048 13.216 65.2488 13.776C66.4328 14.992 67.0248 16.4 67.0248 18C67.0248 18.288 67.0008 18.592 66.9528 18.912H57.2328ZM60.9768 13.992C60.3208 13.992 59.7048 14.136 59.1288 14.424C58.5528 14.712 58.0888 15.096 57.7368 15.576C57.4008 16.04 57.2328 16.536 57.2328 17.064H64.7208C64.7208 16.536 64.5448 16.04 64.1928 15.576C63.8568 15.096 63.4008 14.712 62.8248 14.424C62.2488 14.136 61.6328 13.992 60.9768 13.992ZM78.67 24V22.176C78.158 22.768 77.566 23.24 76.894 23.592C76.222 23.944 75.51 24.12 74.758 24.12C73.926 24.12 73.142 23.968 72.406 23.664C71.686 23.36 71.046 22.928 70.486 22.368C69.926 21.824 69.486 21.184 69.166 20.448C68.862 19.696 68.71 18.912 68.71 18.096C68.71 17.28 68.862 16.504 69.166 15.768C69.486 15.016 69.926 14.36 70.486 13.8C71.046 13.24 71.686 12.808 72.406 12.504C73.142 12.2 73.926 12.048 74.758 12.048C75.526 12.048 76.246 12.208 76.918 12.528C77.606 12.848 78.19 13.296 78.67 13.872V12.288H80.83V24H78.67ZM74.758 14.184C74.23 14.184 73.718 14.288 73.222 14.496C72.742 14.688 72.326 14.96 71.974 15.312C71.622 15.664 71.342 16.088 71.134 16.584C70.942 17.064 70.846 17.568 70.846 18.096C70.846 18.624 70.942 19.128 71.134 19.608C71.342 20.088 71.622 20.504 71.974 20.856C72.326 21.208 72.742 21.488 73.222 21.696C73.718 21.888 74.23 21.984 74.758 21.984C75.286 21.984 75.79 21.888 76.27 21.696C76.75 21.488 77.166 21.208 77.518 20.856C77.87 20.504 78.142 20.088 78.334 19.608C78.542 19.128 78.646 18.624 78.646 18.096C78.646 17.568 78.542 17.064 78.334 16.584C78.142 16.088 77.87 15.664 77.518 15.312C77.166 14.96 76.75 14.688 76.27 14.496C75.79 14.288 75.286 14.184 74.758 14.184ZM83.2234 24V8.04H85.1434V24H83.2234ZM93.6079 24.216C92.6959 24.216 91.9359 24.072 91.3279 23.784C90.7199 23.48 90.1679 23.008 89.6719 22.368V29.112H87.5359V12.288H89.6719V13.968C90.1679 13.36 90.7599 12.872 91.4479 12.504C92.1359 12.136 92.8559 11.952 93.6079 11.952C94.4239 11.952 95.1999 12.112 95.9359 12.432C96.6879 12.736 97.3359 13.176 97.8799 13.752C98.4399 14.328 98.8719 14.992 99.1759 15.744C99.4959 16.48 99.6559 17.264 99.6559 18.096C99.6559 18.928 99.4959 19.712 99.1759 20.448C98.8719 21.184 98.4399 21.84 97.8799 22.416C97.3359 22.976 96.6879 23.416 95.9359 23.736C95.1999 24.056 94.4239 24.216 93.6079 24.216ZM93.6079 14.136C93.0799 14.136 92.5759 14.24 92.0959 14.448C91.6159 14.64 91.1999 14.92 90.8479 15.288C90.4959 15.656 90.2159 16.088 90.0079 16.584C89.7999 17.064 89.6959 17.568 89.6959 18.096C89.6959 18.624 89.7999 19.128 90.0079 19.608C90.2159 20.088 90.4959 20.512 90.8479 20.88C91.1999 21.248 91.6159 21.536 92.0959 21.744C92.5759 21.952 93.0799 22.056 93.6079 22.056C94.1359 22.056 94.6399 21.952 95.1199 21.744C95.5999 21.536 96.0159 21.248 96.3679 20.88C96.7199 20.512 96.9919 20.088 97.1839 19.608C97.3919 19.128 97.4959 18.624 97.4959 18.096C97.4959 17.568 97.3919 17.064 97.1839 16.584C96.9919 16.088 96.7199 15.656 96.3679 15.288C96.0159 14.92 95.5999 14.64 95.1199 14.448C94.6399 14.24 94.1359 14.136 93.6079 14.136ZM101.809 24V8.04H103.729V24H101.809ZM111.09 29.112C110.178 29.112 109.33 28.88 108.546 28.416C107.778 27.952 107.106 27.28 106.53 26.4L108.402 25.32C108.738 25.848 109.138 26.248 109.602 26.52C110.066 26.808 110.562 26.952 111.09 26.952C111.938 26.952 112.674 26.64 113.298 26.016C113.586 25.728 113.802 25.392 113.946 25.008C114.106 24.624 114.186 24.216 114.186 23.784V22.944C113.818 23.328 113.354 23.64 112.794 23.88C112.234 24.104 111.666 24.216 111.09 24.216C110.386 24.216 109.722 24.088 109.098 23.832C108.474 23.56 107.922 23.184 107.442 22.704C106.946 22.224 106.562 21.672 106.29 21.048C106.018 20.408 105.882 19.736 105.882 19.032V12H107.994V18.888C107.994 19.448 108.13 19.976 108.402 20.472C108.69 20.952 109.066 21.336 109.53 21.624C110.01 21.912 110.53 22.056 111.09 22.056C111.65 22.056 112.17 21.92 112.65 21.648C113.13 21.36 113.506 20.976 113.778 20.496C114.05 20 114.186 19.464 114.186 18.888V12H116.298V23.784C116.298 24.504 116.162 25.192 115.89 25.848C115.634 26.504 115.266 27.072 114.786 27.552C114.29 28.048 113.722 28.432 113.082 28.704C112.458 28.976 111.794 29.112 111.09 29.112Z" fill="#F8F8F8"/>
<path d="M26.2137 22.9697C25.6509 21.7977 25.5236 20.63 26.0124 19.427C26.3437 18.6121 26.897 17.9788 27.6611 17.5494C29.1936 16.6872 31.0936 17.0116 32.3155 18.323C33.4496 19.5423 33.6183 21.5197 32.689 22.9292C32.0737 23.8629 31.2029 24.4196 30.0946 24.6012C29.4827 24.701 28.9071 24.6511 28.3546 24.4755C27.6585 24.2535 26.9124 24.6261 26.6715 25.3154C25.8575 27.6491 24.5986 29.6824 22.5618 31.1496C22.1229 31.4662 21.6057 31.7123 21.0869 31.8732C19.396 32.3981 17.7094 31.2339 17.5416 29.4656C17.4298 28.2987 17.8402 27.3703 18.7971 26.6733C21.6875 24.5668 22.2795 20.8339 20.2135 17.9271C19.5182 16.947 18.8229 15.9626 18.2068 14.9335C17.4977 13.7494 17.8006 12.2332 18.8341 11.3529C19.8839 10.4589 21.4629 10.3961 22.5179 11.2419C22.8199 11.4855 23.0841 11.7995 23.2983 12.1257C24.2423 13.5498 25.1605 14.9937 26.0924 16.4256C26.3282 16.7861 26.2869 17.0348 25.9547 17.3592C24.4635 18.8109 24.4609 21.2125 25.9125 22.7098C26.0063 22.8045 26.113 22.8836 26.2137 22.9697Z" fill="#D4D4FC"/>
<path d="M14.4818 5.59794C13.7469 6.67098 12.7987 7.36368 11.5114 7.54008C10.6397 7.65969 9.81532 7.4962 9.06152 7.04788C7.54962 6.14952 6.88274 4.34075 7.41022 2.62836C7.90071 1.0373 9.53049 -0.0959785 11.2162 0.00642075C12.3323 0.0735396 13.2496 0.550256 13.9603 1.42108C14.3519 1.90124 14.5962 2.42528 14.7193 2.99149C14.8742 3.7057 15.5686 4.16607 16.2871 4.03097C18.7163 3.57233 21.1059 3.64891 23.394 4.68237C23.887 4.90524 24.3586 5.23051 24.757 5.5988C26.0555 6.80264 25.8877 8.84546 24.4395 9.87289C23.4835 10.5518 22.475 10.6594 21.3925 10.1784C18.1243 8.72499 14.5945 10.0742 13.1059 13.314C12.6033 14.406 12.0974 15.4988 11.5122 16.5469C10.8393 17.7525 9.37474 18.2464 8.09604 17.7895C6.79755 17.3257 5.95512 15.9885 6.16164 14.6521C6.22187 14.2683 6.363 13.8837 6.53768 13.5352C7.30094 12.0069 8.09432 10.4907 8.86963 8.96851C9.06496 8.58387 9.30074 8.4961 9.74733 8.62173C11.7497 9.18966 13.8321 7.99357 14.4052 5.98861C14.4422 5.86039 14.4577 5.72873 14.4818 5.59794Z" fill="#D4D4FC"/>
<path d="M5.15916 24.1985C6.45421 24.3172 7.52123 24.8077 8.30256 25.8455C8.83177 26.5485 9.09078 27.3479 9.06668 28.2247C9.01935 29.9827 7.76475 31.4464 6.01191 31.8208C4.38299 32.1675 2.60003 31.2967 1.86775 29.7754C1.38243 28.7677 1.35231 27.7351 1.76535 26.6896C1.99424 26.1139 2.33242 25.645 2.76697 25.262C3.31511 24.7793 3.37879 23.9481 2.91068 23.387C1.3265 21.4896 0.228505 19.3659 0.0159621 16.8644C-0.0296443 16.3249 0.0245633 15.7553 0.151917 15.2269C0.57098 13.5068 2.43568 12.6575 4.03879 13.4216C5.0972 13.925 5.68234 14.7545 5.7899 15.9334C6.11345 19.495 9.01161 21.9199 12.5663 21.6411C13.7641 21.5473 14.9663 21.4569 16.1658 21.4569C17.546 21.4569 18.6914 22.4947 18.9159 23.8345C19.144 25.1941 18.3867 26.5812 17.1192 27.0527C16.7552 27.187 16.3499 27.2515 15.9601 27.2687C14.2529 27.347 12.5431 27.3926 10.8359 27.458C10.4056 27.4752 10.2129 27.3117 10.1062 26.8608C9.62601 24.8361 7.56683 23.6004 5.53692 24.0771C5.40784 24.1047 5.28479 24.1563 5.15916 24.1985Z" fill="#D4D4FC"/>
</svg>
